<svg width="1409" height="1114" viewBox="0 0 1409 1114" fill="none" xmlns="http://www.w3.org/2000/svg">
<g style="mix-blend-mode:lighten">
<path fill-rule="evenodd" clip-rule="evenodd" d="M565.726 46.5869L568.053 47.8607C568.105 47.8894 568.148 47.9317 568.179 47.983C568.209 48.0343 568.225 48.0927 568.225 48.1523C568.225 48.2119 568.209 48.2703 568.179 48.3216C568.148 48.3729 568.105 48.4152 568.053 48.4439L565.726 49.7186C565.67 49.7493 565.625 49.795 565.594 49.8504L564.321 52.18C564.293 52.2324 564.251 52.2761 564.199 52.3066C564.148 52.337 564.09 52.3531 564.03 52.3531C563.97 52.3531 563.912 52.337 563.861 52.3066C563.809 52.2761 563.767 52.2324 563.739 52.18L562.465 49.8513C562.435 49.7943 562.389 49.7474 562.333 49.716L560.007 48.4439C559.954 48.4152 559.911 48.3729 559.881 48.3216C559.85 48.2703 559.834 48.2119 559.834 48.1523C559.834 48.0927 559.85 48.0343 559.881 47.983C559.911 47.9317 559.954 47.8894 560.007 47.8607L562.333 46.586C562.389 46.5554 562.435 46.5094 562.465 46.4533L563.738 44.1254C563.766 44.073 563.809 44.0293 563.86 43.9989C563.911 43.9684 563.97 43.9523 564.029 43.9523C564.089 43.9523 564.147 43.9684 564.199 43.9989C564.25 44.0293 564.292 44.073 564.321 44.1254L565.594 46.4533C565.624 46.5099 565.67 46.5547 565.726 46.586" fill="#D15D64"/>
</g>
<path fill-rule="evenodd" clip-rule="evenodd" d="M305.225 60.0123L303.982 61.2548L305.225 60.0123ZM308.601 56.6312L307.359 57.8755L308.601 56.6312ZM305.285 60.1501C305.43 60.2955 305.602 60.4108 305.792 60.4895C305.982 60.5682 306.185 60.6087 306.391 60.6087C306.596 60.6087 306.8 60.5682 306.989 60.4895C307.179 60.4108 307.352 60.2955 307.497 60.1501C307.642 60.0047 307.757 59.832 307.836 59.642C307.915 59.452 307.955 59.2484 307.955 59.0428C307.955 58.8371 307.915 58.6335 307.836 58.4435C307.757 58.2535 307.642 58.0809 307.497 57.9355C307.352 57.7901 307.179 57.6747 306.989 57.596C306.8 57.5173 306.596 57.4768 306.391 57.4768C306.185 57.4768 305.982 57.5173 305.792 57.596C305.602 57.6747 305.43 57.7901 305.285 57.9355C305.139 58.0809 305.024 58.2535 304.945 58.4435C304.867 58.6335 304.826 58.8371 304.826 59.0428C304.826 59.2484 304.867 59.452 304.945 59.642C305.024 59.832 305.139 60.0047 305.285 60.1501V60.1501Z" stroke="#7B63AB" stroke-width="1.097" stroke-linecap="round" stroke-linejoin="round"/>
<g style="mix-blend-mode:lighten">
<path fill-rule="evenodd" clip-rule="evenodd" d="M771.758 85.4693L774.085 86.7431C774.137 86.7718 774.18 86.8141 774.211 86.8654C774.241 86.9167 774.257 86.9751 774.257 87.0347C774.257 87.0943 774.241 87.1527 774.211 87.204C774.18 87.2553 774.137 87.2975 774.085 87.3263L771.758 88.6001C771.702 88.6318 771.656 88.6787 771.626 88.7354L770.354 91.0632C770.325 91.1156 770.283 91.1593 770.232 91.1898C770.18 91.2203 770.122 91.2363 770.062 91.2363C770.003 91.2363 769.944 91.2203 769.893 91.1898C769.842 91.1593 769.799 91.1156 769.771 91.0632L768.498 88.7337C768.467 88.6777 768.421 88.6316 768.365 88.601L766.039 87.3288C765.987 87.3001 765.943 87.2579 765.913 87.2066C765.883 87.1553 765.867 87.0968 765.867 87.0372C765.867 86.9777 765.883 86.9192 765.913 86.8679C765.943 86.8166 765.987 86.7744 766.039 86.7456L768.365 85.471C768.421 85.4406 768.467 85.3948 768.498 85.3391L769.77 83.0104C769.799 82.958 769.841 82.9143 769.892 82.8838C769.943 82.8533 770.002 82.8373 770.061 82.8373C770.121 82.8373 770.18 82.8533 770.231 82.8838C770.282 82.9143 770.324 82.958 770.353 83.0104L771.626 85.3391C771.656 85.3949 771.702 85.4405 771.758 85.471" fill="#D15D64"/>
</g>
<g style="mix-blend-mode:lighten">
<path fill-rule="evenodd" clip-rule="evenodd" d="M926.282 118.435L928.608 119.709C928.661 119.737 928.704 119.78 928.734 119.831C928.764 119.882 928.78 119.941 928.78 120C928.78 120.06 928.764 120.118 928.734 120.17C928.704 120.221 928.661 120.263 928.608 120.292L926.282 121.567C926.227 121.597 926.181 121.643 926.15 121.698L924.879 124.028C924.85 124.081 924.808 124.125 924.757 124.156C924.705 124.186 924.646 124.203 924.587 124.203C924.527 124.203 924.468 124.186 924.416 124.156C924.365 124.125 924.323 124.081 924.294 124.028L923.023 121.698C922.991 121.643 922.944 121.597 922.888 121.567L920.563 120.293C920.511 120.264 920.467 120.222 920.437 120.171C920.406 120.119 920.39 120.061 920.39 120.001C920.39 119.941 920.406 119.883 920.437 119.832C920.467 119.78 920.511 119.738 920.563 119.709L922.889 118.435C922.945 118.404 922.992 118.359 923.023 118.303L924.294 115.974C924.323 115.922 924.365 115.879 924.417 115.848C924.468 115.818 924.526 115.802 924.586 115.802C924.645 115.802 924.704 115.818 924.755 115.848C924.806 115.879 924.848 115.922 924.877 115.974L926.15 118.304C926.182 118.36 926.226 118.405 926.283 118.437" fill="#E98333"/>
</g>
<g style="mix-blend-mode:lighten">
<path fill-rule="evenodd" clip-rule="evenodd" d="M921.892 395.633L924.218 396.907C924.27 396.935 924.314 396.978 924.344 397.029C924.374 397.08 924.39 397.139 924.39 397.198C924.39 397.258 924.374 397.316 924.344 397.368C924.314 397.419 924.27 397.461 924.218 397.49L921.892 398.764C921.836 398.795 921.791 398.841 921.76 398.896L920.489 401.226C920.46 401.279 920.418 401.323 920.367 401.354C920.315 401.384 920.256 401.401 920.196 401.401C920.136 401.401 920.078 401.384 920.026 401.354C919.975 401.323 919.933 401.279 919.904 401.226L918.633 398.896C918.601 398.84 918.554 398.795 918.498 398.764L916.173 397.491C916.121 397.462 916.077 397.42 916.046 397.369C916.016 397.317 916 397.259 916 397.199C916 397.139 916.016 397.081 916.046 397.029C916.077 396.978 916.121 396.936 916.173 396.907L918.499 395.633C918.555 395.602 918.601 395.557 918.633 395.501L919.904 393.172C919.933 393.12 919.975 393.077 920.026 393.046C920.078 393.016 920.136 393 920.196 393C920.255 393 920.313 393.016 920.365 393.046C920.416 393.077 920.458 393.12 920.487 393.172L921.76 395.502C921.791 395.558 921.836 395.603 921.893 395.634" fill="#E98333"/>
</g>
<g style="mix-blend-mode:lighten">
<path fill-rule="evenodd" clip-rule="evenodd" d="M630.892 227.633L633.218 228.907C633.27 228.935 633.314 228.978 633.344 229.029C633.374 229.08 633.39 229.139 633.39 229.198C633.39 229.258 633.374 229.316 633.344 229.368C633.314 229.419 633.27 229.461 633.218 229.49L630.892 230.764C630.836 230.795 630.791 230.841 630.76 230.896L629.489 233.226C629.46 233.279 629.418 233.323 629.367 233.354C629.315 233.384 629.256 233.401 629.196 233.401C629.136 233.401 629.078 233.384 629.026 233.354C628.975 233.323 628.933 233.279 628.904 233.226L627.633 230.896C627.601 230.84 627.554 230.795 627.498 230.764L625.173 229.491C625.121 229.462 625.077 229.42 625.046 229.369C625.016 229.317 625 229.259 625 229.199C625 229.139 625.016 229.081 625.046 229.029C625.077 228.978 625.121 228.936 625.173 228.907L627.499 227.633C627.555 227.602 627.601 227.557 627.633 227.501L628.904 225.172C628.933 225.12 628.975 225.077 629.026 225.046C629.078 225.016 629.136 225 629.196 225C629.255 225 629.313 225.016 629.365 225.046C629.416 225.077 629.458 225.12 629.487 225.172L630.76 227.502C630.791 227.558 630.836 227.603 630.893 227.634" fill="#E98333"/>
</g>
<g style="mix-blend-mode:lighten">
<path fill-rule="evenodd" clip-rule="evenodd" d="M873.996 53.8587L875.145 54.4884C875.197 54.5172 875.241 54.5596 875.271 54.611C875.301 54.6625 875.317 54.7211 875.317 54.7809C875.317 54.8406 875.301 54.8993 875.271 54.9507C875.241 55.0022 875.197 55.0445 875.145 55.0733L873.996 55.7014C873.941 55.7323 873.895 55.7783 873.865 55.8341L873.237 56.9836C873.209 57.0362 873.166 57.0801 873.115 57.1107C873.064 57.1412 873.005 57.1574 872.945 57.1574C872.885 57.1574 872.827 57.1412 872.775 57.1107C872.724 57.0801 872.682 57.0362 872.653 56.9836L872.026 55.8341C871.995 55.7781 871.949 55.732 871.893 55.7014L870.745 55.0733C870.692 55.0445 870.649 55.0022 870.618 54.9507C870.588 54.8993 870.572 54.8406 870.572 54.7809C870.572 54.7211 870.588 54.6625 870.618 54.611C870.649 54.5596 870.692 54.5172 870.745 54.4884L871.893 53.8595C871.949 53.8294 871.995 53.784 872.026 53.7285L872.653 52.5789C872.682 52.5266 872.724 52.483 872.775 52.4526C872.827 52.4222 872.885 52.4061 872.945 52.4061C873.005 52.4061 873.063 52.4222 873.115 52.4526C873.166 52.483 873.208 52.5266 873.237 52.5789L873.866 53.7285C873.897 53.7843 873.943 53.8299 873.998 53.8604" fill="#FCD05C"/>
</g>
<g style="mix-blend-mode:lighten">
<path fill-rule="evenodd" clip-rule="evenodd" d="M978.495 183.343C978.495 183.995 978.236 184.62 977.775 185.08C977.315 185.541 976.69 185.8 976.039 185.799C975.388 185.799 974.764 185.54 974.303 185.079C973.843 184.618 973.585 183.992 973.585 183.341C973.585 183.018 973.649 182.698 973.773 182.4C973.896 182.102 974.077 181.831 974.305 181.603C974.533 181.375 974.804 181.194 975.102 181.071C975.4 180.947 975.719 180.884 976.042 180.884C976.364 180.884 976.683 180.948 976.981 181.072C977.279 181.195 977.549 181.377 977.777 181.605C978.005 181.833 978.186 182.104 978.309 182.402C978.432 182.701 978.495 183.02 978.495 183.343ZM56.555 238.462L58.8821 239.736C58.9347 239.765 58.9785 239.807 59.009 239.859C59.0396 239.91 59.0557 239.969 59.0557 240.029C59.0557 240.088 59.0396 240.147 59.009 240.199C58.9785 240.25 58.9347 240.292 58.8821 240.321L56.555 241.595C56.4996 241.626 56.454 241.671 56.4233 241.727L55.1508 244.055C55.1222 244.108 55.0801 244.152 55.0288 244.182C54.9776 244.213 54.9191 244.229 54.8595 244.229C54.7998 244.229 54.7413 244.213 54.6901 244.182C54.6388 244.152 54.5967 244.108 54.5681 244.055L53.2948 241.727C53.264 241.671 53.2181 241.625 53.1622 241.595L50.8359 240.321C50.7834 240.292 50.7396 240.25 50.709 240.199C50.6785 240.147 50.6624 240.088 50.6624 240.029C50.6624 239.969 50.6785 239.91 50.709 239.859C50.7396 239.807 50.7834 239.765 50.8359 239.736L53.1622 238.462C53.218 238.432 53.264 238.387 53.2948 238.331L54.5673 236.003C54.5958 235.95 54.638 235.906 54.6892 235.876C54.7405 235.846 54.799 235.829 54.8586 235.829C54.9182 235.829 54.9767 235.846 55.028 235.876C55.0793 235.906 55.1214 235.95 55.1499 236.003L56.4233 238.332C56.4537 238.389 56.4993 238.434 56.555 238.464" fill="#D15D64"/>
</g>
<g style="mix-blend-mode:lighten">
<path fill-rule="evenodd" clip-rule="evenodd" d="M133.462 351.394L134.61 352.024C134.663 352.053 134.706 352.095 134.737 352.146C134.767 352.198 134.783 352.256 134.783 352.316C134.783 352.376 134.767 352.435 134.737 352.486C134.706 352.537 134.663 352.58 134.61 352.609L133.462 353.237C133.406 353.268 133.361 353.314 133.33 353.369L132.703 354.519C132.674 354.572 132.632 354.615 132.581 354.646C132.529 354.677 132.471 354.693 132.411 354.693C132.351 354.693 132.292 354.677 132.241 354.646C132.189 354.615 132.147 354.572 132.119 354.519L131.491 353.369C131.461 353.313 131.415 353.267 131.359 353.237L130.21 352.609C130.158 352.58 130.114 352.537 130.084 352.486C130.054 352.435 130.038 352.376 130.038 352.316C130.038 352.256 130.054 352.198 130.084 352.146C130.114 352.095 130.158 352.053 130.21 352.024L131.359 351.395C131.414 351.365 131.46 351.319 131.491 351.264L132.119 350.114C132.147 350.062 132.19 350.018 132.241 349.988C132.292 349.957 132.351 349.941 132.411 349.941C132.47 349.941 132.529 349.957 132.58 349.988C132.632 350.018 132.674 350.062 132.703 350.114L133.331 351.264C133.362 351.32 133.409 351.365 133.464 351.396" fill="#FCD05C"/>
</g>
<g style="mix-blend-mode:lighten">
<path fill-rule="evenodd" clip-rule="evenodd" d="M1362.83 414.279L1365.16 415.553C1365.21 415.582 1365.26 415.624 1365.29 415.676C1365.32 415.727 1365.33 415.786 1365.33 415.846C1365.33 415.905 1365.32 415.964 1365.29 416.016C1365.26 416.067 1365.21 416.109 1365.16 416.138L1362.83 417.411C1362.78 417.442 1362.73 417.488 1362.7 417.544L1361.43 419.872C1361.4 419.924 1361.36 419.969 1361.31 419.999C1361.26 420.03 1361.2 420.046 1361.14 420.046C1361.08 420.046 1361.02 420.03 1360.97 419.999C1360.92 419.969 1360.87 419.924 1360.85 419.872L1359.57 417.543C1359.54 417.486 1359.5 417.44 1359.44 417.409L1357.12 416.137C1357.06 416.108 1357.02 416.066 1356.99 416.014C1356.96 415.963 1356.94 415.904 1356.94 415.844C1356.94 415.784 1356.96 415.725 1356.99 415.674C1357.02 415.622 1357.06 415.58 1357.12 415.552L1359.44 414.277C1359.5 414.247 1359.54 414.202 1359.57 414.146L1360.85 411.817C1360.88 411.765 1360.92 411.721 1360.97 411.691C1361.02 411.66 1361.08 411.644 1361.14 411.644C1361.2 411.644 1361.26 411.66 1361.31 411.691C1361.36 411.721 1361.4 411.765 1361.43 411.817L1362.7 414.146C1362.73 414.202 1362.78 414.247 1362.84 414.278L1362.83 414.279ZM1122.1 53.7953L1123.19 54.3954C1123.41 54.5172 1123.41 54.835 1123.19 54.9533L1122.1 55.556C1122.04 55.5849 1122 55.6283 1121.97 55.6811L1121.37 56.7799C1121.34 56.8298 1121.3 56.8714 1121.25 56.9003C1121.2 56.9293 1121.15 56.9445 1121.09 56.9445C1121.03 56.9445 1120.98 56.9293 1120.93 56.9003C1120.88 56.8714 1120.84 56.8298 1120.81 56.7799L1120.21 55.6811C1120.18 55.6282 1120.14 55.5849 1120.09 55.556L1118.99 54.9542C1118.94 54.9266 1118.9 54.8862 1118.87 54.8372C1118.84 54.7881 1118.82 54.7322 1118.82 54.6752C1118.82 54.6183 1118.84 54.5623 1118.87 54.5133C1118.9 54.4642 1118.94 54.4238 1118.99 54.3963L1120.09 53.7961C1120.14 53.7664 1120.18 53.7225 1120.21 53.6693L1120.81 52.5705C1120.84 52.52 1120.88 52.4778 1120.93 52.4484C1120.98 52.419 1121.03 52.4034 1121.09 52.4034C1121.15 52.4034 1121.2 52.419 1121.25 52.4484C1121.3 52.4778 1121.34 52.52 1121.37 52.5705L1121.97 53.6693C1122 53.7227 1122.04 53.7666 1122.1 53.7961" fill="#D15D64"/>
</g>
<g style="mix-blend-mode:lighten">
<path fill-rule="evenodd" clip-rule="evenodd" d="M1339.26 292.225L1340.41 292.855C1340.46 292.883 1340.5 292.926 1340.53 292.977C1340.56 293.029 1340.58 293.087 1340.58 293.147C1340.58 293.207 1340.56 293.265 1340.53 293.317C1340.5 293.368 1340.46 293.411 1340.41 293.44L1339.26 294.068C1339.2 294.099 1339.16 294.145 1339.13 294.2L1338.5 295.35C1338.47 295.402 1338.43 295.446 1338.38 295.477C1338.33 295.507 1338.27 295.524 1338.21 295.524C1338.15 295.524 1338.09 295.507 1338.04 295.477C1337.99 295.446 1337.94 295.402 1337.91 295.35L1337.29 294.2C1337.26 294.144 1337.21 294.098 1337.15 294.068L1336.01 293.44C1335.95 293.411 1335.91 293.368 1335.88 293.317C1335.85 293.265 1335.83 293.207 1335.83 293.147C1335.83 293.087 1335.85 293.029 1335.88 292.977C1335.91 292.926 1335.95 292.883 1336.01 292.855L1337.15 292.226C1337.21 292.196 1337.26 292.15 1337.29 292.095L1337.91 290.945C1337.94 290.893 1337.99 290.849 1338.04 290.819C1338.09 290.788 1338.15 290.772 1338.21 290.772C1338.27 290.772 1338.33 290.788 1338.38 290.819C1338.43 290.849 1338.47 290.893 1338.5 290.945L1339.13 292.095C1339.16 292.151 1339.2 292.196 1339.26 292.227" fill="#FCD05C"/>
</g>
<path fill-rule="evenodd" clip-rule="evenodd" d="M306.515 294.903L309.516 294.152L308.767 297.156L306.515 294.903Z" stroke="#E98333" stroke-width="1.097" stroke-linecap="round" stroke-linejoin="round"/>
<g style="mix-blend-mode:lighten">
<path fill-rule="evenodd" clip-rule="evenodd" d="M400.434 393.909L402.138 394.842L400.434 395.775L399.501 397.481L398.569 395.775L396.865 394.842L398.569 393.909L399.501 392.203L400.434 393.909Z" fill="#00A959"/>
</g>
<g style="mix-blend-mode:lighten">
<path fill-rule="evenodd" clip-rule="evenodd" d="M407.825 2.63277L410.151 3.9066C410.203 3.93536 410.246 3.97759 410.277 4.02888C410.307 4.08017 410.323 4.13865 410.323 4.19822C410.323 4.25778 410.307 4.31625 410.277 4.36754C410.246 4.41883 410.203 4.46106 410.151 4.48983L407.825 5.7645C407.768 5.79486 407.722 5.8406 407.691 5.89636L406.42 8.22593C406.391 8.27873 406.349 8.32285 406.298 8.3536C406.246 8.38435 406.187 8.40059 406.127 8.40059C406.067 8.40059 406.009 8.38435 405.957 8.3536C405.906 8.32285 405.864 8.27873 405.835 8.22593L404.563 5.89636C404.532 5.84086 404.486 5.79517 404.43 5.7645L402.104 4.49068C402.051 4.4621 402.008 4.41994 401.977 4.36862C401.947 4.31731 401.931 4.25873 401.931 4.19906C401.931 4.13939 401.947 4.08081 401.977 4.0295C402.008 3.97818 402.051 3.93602 402.104 3.90744L404.43 2.63277C404.486 2.6021 404.532 2.55641 404.563 2.50091L405.836 0.172189C405.865 0.120032 405.907 0.0765431 405.958 0.046258C406.009 0.0159729 406.068 0 406.127 0C406.187 0 406.245 0.0159729 406.297 0.046258C406.348 0.0765431 406.39 0.120032 406.419 0.172189L407.691 2.50176C407.722 2.55754 407.767 2.60319 407.824 2.63446" fill="#E98333"/>
</g>
<path fill-rule="evenodd" clip-rule="evenodd" d="M511.585 139.684L510.87 138.332C510.835 138.267 510.782 138.214 510.718 138.179L509.367 137.463C509.308 137.432 509.258 137.385 509.224 137.328C509.189 137.27 509.171 137.205 509.171 137.138C509.171 137.071 509.189 137.006 509.224 136.949C509.258 136.891 509.308 136.845 509.367 136.814L510.718 136.098C510.782 136.063 510.835 136.01 510.87 135.945L511.585 134.593C511.616 134.534 511.663 134.484 511.72 134.449C511.777 134.415 511.843 134.396 511.91 134.396C511.977 134.396 512.043 134.415 512.1 134.449C512.157 134.484 512.204 134.534 512.235 134.593L512.949 135.945C512.983 136.01 513.036 136.063 513.101 136.098L514.452 136.814C514.714 136.951 514.714 137.325 514.452 137.463L513.101 138.179C513.036 138.213 512.983 138.266 512.949 138.331L512.234 139.683C512.203 139.743 512.156 139.792 512.099 139.827C512.042 139.861 511.976 139.88 511.909 139.88C511.842 139.88 511.777 139.861 511.719 139.827C511.662 139.792 511.615 139.743 511.584 139.683L511.585 139.684Z" stroke="#7B63AB" stroke-width="1.097" stroke-linecap="round" stroke-linejoin="round"/>
<g style="mix-blend-mode:lighten">
<path fill-rule="evenodd" clip-rule="evenodd" d="M461.021 104.911L463.348 106.184C463.4 106.213 463.444 106.255 463.474 106.307C463.504 106.358 463.52 106.416 463.52 106.476C463.52 106.536 463.504 106.594 463.474 106.645C463.444 106.697 463.4 106.739 463.348 106.768L461.021 108.041C460.965 108.073 460.919 108.12 460.889 108.177L459.617 110.505C459.588 110.557 459.546 110.601 459.495 110.631C459.443 110.662 459.385 110.678 459.325 110.678C459.266 110.678 459.207 110.662 459.156 110.631C459.105 110.601 459.062 110.557 459.034 110.505L457.761 108.175C457.73 108.119 457.684 108.073 457.628 108.042L455.302 106.77C455.25 106.741 455.206 106.699 455.176 106.648C455.146 106.597 455.13 106.538 455.13 106.479C455.13 106.419 455.146 106.36 455.176 106.309C455.206 106.258 455.25 106.216 455.302 106.187L457.628 104.912C457.684 104.882 457.73 104.836 457.761 104.78L459.033 102.452C459.062 102.399 459.104 102.356 459.155 102.325C459.206 102.295 459.265 102.279 459.324 102.279C459.384 102.279 459.443 102.295 459.494 102.325C459.545 102.356 459.587 102.399 459.616 102.452L460.889 104.78C460.919 104.836 460.965 104.882 461.021 104.912" fill="#D15D64"/>
</g>
<g style="mix-blend-mode:lighten">
<path fill-rule="evenodd" clip-rule="evenodd" d="M109.754 76.1713L112.079 77.4451C112.131 77.4739 112.175 77.5161 112.205 77.5674C112.235 77.6187 112.251 77.6771 112.251 77.7367C112.251 77.7963 112.235 77.8548 112.205 77.906C112.175 77.9573 112.131 77.9996 112.079 78.0283L109.752 79.303C109.697 79.3336 109.651 79.3793 109.62 79.4349L108.348 81.7644C108.319 81.8168 108.277 81.8605 108.226 81.891C108.175 81.9214 108.116 81.9375 108.056 81.9375C107.997 81.9375 107.938 81.9214 107.887 81.891C107.836 81.8605 107.794 81.8168 107.765 81.7644L106.493 79.4349C106.461 79.379 106.414 79.3333 106.358 79.303L104.034 78.0292C103.981 78.0006 103.938 77.9584 103.907 77.9071C103.877 77.8558 103.861 77.7972 103.861 77.7376C103.861 77.6779 103.877 77.6193 103.907 77.568C103.938 77.5167 103.981 77.4745 104.034 77.4459L106.359 76.1713C106.415 76.1406 106.461 76.0949 106.492 76.0394L107.765 73.7107C107.794 73.6585 107.836 73.6151 107.887 73.5848C107.939 73.5545 107.997 73.5385 108.056 73.5385C108.116 73.5385 108.174 73.5545 108.226 73.5848C108.277 73.6151 108.319 73.6585 108.348 73.7107L109.62 76.0403C109.651 76.0961 109.696 76.1417 109.752 76.173" fill="#E98333"/>
</g>
<g style="mix-blend-mode:lighten">
<path fill-rule="evenodd" clip-rule="evenodd" d="M212.629 16.8249C212.629 17.4767 212.37 18.1016 211.909 18.5623C211.449 19.0229 210.824 19.2815 210.173 19.2812C209.522 19.2809 208.897 19.0216 208.437 18.5605C207.977 18.0994 207.719 17.4741 207.719 16.8223C207.719 16.4996 207.783 16.18 207.906 15.8819C208.03 15.5838 208.211 15.313 208.439 15.0849C208.667 14.8568 208.938 14.6759 209.236 14.5526C209.534 14.4292 209.853 14.3658 210.175 14.366C210.498 14.3661 210.817 14.4299 211.115 14.5535C211.413 14.6772 211.683 14.8584 211.911 15.0867C212.139 15.315 212.32 15.586 212.443 15.8843C212.566 16.1825 212.629 16.5021 212.629 16.8249Z" fill="#D15D64"/>
</g>
<path fill-rule="evenodd" clip-rule="evenodd" d="M2.41393 142.22L1.69873 140.867C1.66414 140.803 1.61127 140.75 1.54673 140.715L0.195702 139.999C0.136647 139.967 0.0872053 139.921 0.0527168 139.864C0.0182282 139.806 0 139.741 0 139.674C0 139.607 0.0182282 139.542 0.0527168 139.484C0.0872053 139.427 0.136647 139.38 0.195702 139.349L1.54673 138.633C1.61121 138.599 1.66406 138.546 1.69873 138.481L2.41393 137.129C2.44509 137.07 2.49184 137.02 2.54913 136.985C2.60643 136.951 2.67209 136.932 2.73902 136.932C2.80595 136.932 2.87162 136.951 2.92891 136.985C2.98621 137.02 3.03296 137.07 3.06411 137.129L3.77763 138.481C3.81221 138.546 3.86509 138.599 3.92962 138.633L5.28065 139.349C5.54242 139.487 5.54242 139.861 5.28065 139.999L3.92962 140.714C3.86496 140.749 3.81204 140.802 3.77763 140.867L3.06327 142.219C3.03211 142.278 2.98536 142.328 2.92807 142.363C2.87077 142.397 2.80511 142.416 2.73818 142.416C2.67124 142.416 2.60558 142.397 2.54829 142.363C2.49099 142.328 2.44424 142.278 2.41309 142.219L2.41393 142.22Z" stroke="#7B63AB" stroke-width="1.097" stroke-linecap="round" stroke-linejoin="round"/>
<g style="mix-blend-mode:lighten">
<path fill-rule="evenodd" clip-rule="evenodd" d="M1387.32 189.437L1389.65 190.711C1389.7 190.739 1389.74 190.782 1389.77 190.833C1389.8 190.885 1389.82 190.943 1389.82 191.003C1389.82 191.063 1389.8 191.121 1389.77 191.173C1389.74 191.224 1389.7 191.267 1389.65 191.295L1387.32 192.569C1387.27 192.6 1387.22 192.645 1387.19 192.701L1385.92 195.03C1385.89 195.083 1385.85 195.127 1385.8 195.158C1385.75 195.188 1385.69 195.205 1385.63 195.205C1385.57 195.205 1385.51 195.188 1385.46 195.158C1385.4 195.127 1385.36 195.083 1385.33 195.03L1384.06 192.701C1384.03 192.645 1383.98 192.599 1383.93 192.569L1381.6 191.295C1381.55 191.267 1381.51 191.225 1381.48 191.173C1381.45 191.122 1381.43 191.063 1381.43 191.003C1381.43 190.943 1381.45 190.884 1381.48 190.833C1381.51 190.781 1381.55 190.739 1381.6 190.711L1383.93 189.437C1383.99 189.407 1384.03 189.361 1384.06 189.306L1385.33 186.977C1385.36 186.925 1385.4 186.881 1385.46 186.85C1385.51 186.82 1385.57 186.804 1385.63 186.804C1385.69 186.804 1385.74 186.82 1385.79 186.85C1385.85 186.881 1385.89 186.925 1385.92 186.977L1387.19 189.307C1387.22 189.362 1387.27 189.408 1387.32 189.438" fill="#D15D64"/>
</g>
<g style="mix-blend-mode:lighten">
<path fill-rule="evenodd" clip-rule="evenodd" d="M1341.79 157.829L1342.94 158.457C1342.99 158.486 1343.04 158.528 1343.07 158.579C1343.1 158.631 1343.11 158.689 1343.11 158.749C1343.11 158.809 1343.1 158.868 1343.07 158.919C1343.04 158.97 1342.99 159.013 1342.94 159.042L1341.79 159.671C1341.74 159.701 1341.69 159.747 1341.66 159.803L1341.03 160.953C1341 161.005 1340.96 161.049 1340.91 161.079C1340.86 161.11 1340.8 161.126 1340.74 161.126C1340.68 161.126 1340.62 161.11 1340.57 161.079C1340.52 161.049 1340.48 161.005 1340.45 160.953L1339.82 159.803C1339.79 159.747 1339.74 159.702 1339.69 159.671L1338.54 159.043C1338.49 159.014 1338.44 158.972 1338.41 158.921C1338.38 158.869 1338.37 158.811 1338.37 158.751C1338.37 158.691 1338.38 158.632 1338.41 158.581C1338.44 158.53 1338.49 158.487 1338.54 158.458L1339.69 157.83C1339.74 157.8 1339.79 157.754 1339.82 157.698L1340.45 156.548C1340.48 156.496 1340.52 156.452 1340.57 156.422C1340.62 156.391 1340.68 156.375 1340.74 156.375C1340.8 156.375 1340.86 156.391 1340.91 156.422C1340.96 156.452 1341 156.496 1341.03 156.548L1341.66 157.698C1341.69 157.754 1341.74 157.8 1341.79 157.83" fill="#7B63AB"/>
</g>
<g style="mix-blend-mode:lighten">
<path fill-rule="evenodd" clip-rule="evenodd" d="M1320.53 9.8412L1321.63 10.4413C1321.85 10.5639 1321.85 10.8809 1321.63 11.0009L1320.53 11.601C1320.48 11.6304 1320.43 11.6744 1320.4 11.7278L1319.8 12.8267C1319.78 12.8765 1319.74 12.9181 1319.69 12.9471C1319.64 12.976 1319.58 12.9913 1319.52 12.9913C1319.47 12.9913 1319.41 12.976 1319.36 12.9471C1319.31 12.9181 1319.27 12.8765 1319.25 12.8267L1318.65 11.7278C1318.62 11.6743 1318.57 11.6304 1318.52 11.601L1317.42 11.0009C1317.37 10.9735 1317.33 10.9331 1317.3 10.8838C1317.27 10.8346 1317.25 10.7784 1317.25 10.7211C1317.25 10.6639 1317.27 10.6077 1317.3 10.5584C1317.33 10.5092 1317.37 10.4687 1317.42 10.4413L1318.52 9.8412C1318.57 9.81146 1318.62 9.76757 1318.64 9.71441L1319.24 8.61725C1319.27 8.56674 1319.31 8.52455 1319.36 8.49514C1319.41 8.46573 1319.47 8.4502 1319.52 8.4502C1319.58 8.4502 1319.64 8.46573 1319.69 8.49514C1319.74 8.52455 1319.78 8.56674 1319.8 8.61725L1320.4 9.71441C1320.43 9.76774 1320.48 9.81168 1320.53 9.8412Z" fill="#D15D64"/>
</g>
<g style="mix-blend-mode:lighten">
<path fill-rule="evenodd" clip-rule="evenodd" d="M1363.75 67.383L1364.89 68.0127C1364.95 68.0415 1364.99 68.0839 1365.02 68.1353C1365.05 68.1868 1365.07 68.2454 1365.07 68.3052C1365.07 68.3649 1365.05 68.4236 1365.02 68.475C1364.99 68.5265 1364.95 68.5688 1364.89 68.5976L1363.75 69.2257C1363.69 69.2566 1363.64 69.3026 1363.61 69.3584L1362.99 70.5079C1362.96 70.5605 1362.92 70.6044 1362.86 70.635C1362.81 70.6655 1362.75 70.6817 1362.69 70.6817C1362.63 70.6817 1362.58 70.6655 1362.52 70.635C1362.47 70.6044 1362.43 70.5605 1362.4 70.5079L1361.77 69.3584C1361.74 69.3024 1361.7 69.2563 1361.64 69.2257L1360.49 68.5976C1360.44 68.5688 1360.4 68.5265 1360.37 68.475C1360.34 68.4236 1360.32 68.3649 1360.32 68.3052C1360.32 68.2454 1360.34 68.1868 1360.37 68.1353C1360.4 68.0839 1360.44 68.0415 1360.49 68.0127L1361.64 67.3838C1361.7 67.3537 1361.74 67.3083 1361.77 67.2528L1362.4 66.1032C1362.43 66.0509 1362.47 66.0072 1362.52 65.9769C1362.58 65.9465 1362.63 65.9304 1362.69 65.9304C1362.75 65.9304 1362.81 65.9465 1362.86 65.9769C1362.92 66.0072 1362.96 66.0509 1362.99 66.1032L1363.61 67.2528C1363.65 67.3086 1363.69 67.3542 1363.75 67.3847" fill="#FCD05C"/>
</g>
<mask id="mask0_20_293" style="mask-type:alpha" maskUnits="userSpaceOnUse" x="1294" y="335" width="5" height="6">
<path d="M1298.87 335.627V340.38H1294.13V335.626H1298.87V335.627Z" fill="white"/>
</mask>
<g mask="url(#mask0_20_293)">
<path fill-rule="evenodd" clip-rule="evenodd" d="M1297.55 337.084L1298.7 337.712C1298.75 337.74 1298.8 337.783 1298.83 337.834C1298.86 337.885 1298.88 337.944 1298.88 338.004C1298.88 338.064 1298.86 338.123 1298.83 338.174C1298.8 338.226 1298.75 338.268 1298.7 338.297L1297.55 338.925C1297.5 338.955 1297.45 339.001 1297.42 339.056L1296.79 340.206C1296.76 340.259 1296.72 340.302 1296.67 340.333C1296.62 340.364 1296.56 340.38 1296.5 340.38C1296.44 340.38 1296.38 340.364 1296.33 340.333C1296.28 340.302 1296.24 340.259 1296.21 340.206L1295.58 339.056C1295.55 339.001 1295.51 338.955 1295.45 338.925L1294.3 338.297C1294.25 338.268 1294.21 338.225 1294.18 338.174C1294.15 338.122 1294.13 338.064 1294.13 338.004C1294.13 337.944 1294.15 337.886 1294.18 337.834C1294.21 337.783 1294.25 337.74 1294.3 337.712L1295.45 337.083C1295.51 337.052 1295.55 337.006 1295.58 336.95L1296.21 335.8C1296.24 335.748 1296.28 335.704 1296.33 335.673C1296.38 335.643 1296.44 335.627 1296.5 335.627C1296.56 335.627 1296.62 335.643 1296.67 335.673C1296.72 335.704 1296.77 335.748 1296.8 335.8L1297.42 336.95C1297.45 337.006 1297.5 337.051 1297.55 337.082" fill="#7B63AB"/>
</g>
<g style="mix-blend-mode:lighten">
<path fill-rule="evenodd" clip-rule="evenodd" d="M1128.94 377.089L1131.26 378.362C1131.32 378.391 1131.36 378.433 1131.39 378.485C1131.42 378.536 1131.44 378.594 1131.44 378.654C1131.44 378.714 1131.42 378.772 1131.39 378.823C1131.36 378.875 1131.32 378.917 1131.26 378.946L1128.94 380.219C1128.88 380.25 1128.84 380.296 1128.8 380.351L1127.53 382.68C1127.51 382.733 1127.46 382.777 1127.41 382.808C1127.36 382.838 1127.3 382.855 1127.24 382.855C1127.18 382.855 1127.12 382.838 1127.07 382.808C1127.02 382.777 1126.98 382.733 1126.95 382.68L1125.68 380.351C1125.65 380.295 1125.6 380.249 1125.54 380.219L1123.22 378.946C1123.17 378.917 1123.12 378.875 1123.09 378.824C1123.06 378.772 1123.04 378.714 1123.04 378.654C1123.04 378.594 1123.06 378.536 1123.09 378.484C1123.12 378.433 1123.17 378.391 1123.22 378.362L1125.54 377.089C1125.6 377.058 1125.65 377.012 1125.68 376.956L1126.95 374.627C1126.98 374.575 1127.02 374.531 1127.07 374.501C1127.12 374.47 1127.18 374.454 1127.24 374.454C1127.3 374.454 1127.36 374.47 1127.41 374.501C1127.46 374.531 1127.5 374.575 1127.53 374.627L1128.8 376.957C1128.84 377.013 1128.88 377.06 1128.94 377.09" fill="#FCD05C"/>
</g>
<g style="mix-blend-mode:lighten">
<path fill-rule="evenodd" clip-rule="evenodd" d="M1035.12 254.97L1036.22 255.571C1036.44 255.692 1036.44 256.01 1036.22 256.128L1035.12 256.73C1035.07 256.76 1035.03 256.804 1035 256.857L1034.4 257.954C1034.37 258.004 1034.33 258.046 1034.28 258.075C1034.23 258.104 1034.18 258.119 1034.12 258.119C1034.06 258.119 1034.01 258.104 1033.96 258.075C1033.91 258.046 1033.87 258.004 1033.84 257.954L1033.24 256.855C1033.21 256.803 1033.17 256.759 1033.11 256.73L1032.01 256.128C1031.96 256.101 1031.92 256.061 1031.89 256.012C1031.87 255.962 1031.85 255.907 1031.85 255.85C1031.85 255.793 1031.87 255.737 1031.89 255.688C1031.92 255.639 1031.96 255.598 1032.01 255.571L1033.11 254.97C1033.17 254.941 1033.21 254.897 1033.24 254.844L1033.84 253.745C1033.87 253.694 1033.91 253.652 1033.96 253.623C1034 253.593 1034.06 253.578 1034.12 253.578C1034.18 253.578 1034.23 253.593 1034.28 253.623C1034.33 253.652 1034.37 253.694 1034.4 253.745L1035 254.844C1035.03 254.897 1035.07 254.941 1035.12 254.97Z" fill="#D15D64"/>
</g>
<g style="mix-blend-mode:lighten">
<path fill-rule="evenodd" clip-rule="evenodd" d="M1221.04 312.511L1222.19 313.141C1222.24 313.17 1222.29 313.212 1222.32 313.264C1222.35 313.315 1222.36 313.374 1222.36 313.434C1222.36 313.493 1222.35 313.552 1222.32 313.603C1222.29 313.655 1222.24 313.697 1222.19 313.726L1221.04 314.354C1220.99 314.385 1220.94 314.431 1220.91 314.487L1220.28 315.636C1220.25 315.689 1220.21 315.733 1220.16 315.763C1220.11 315.794 1220.05 315.81 1219.99 315.81C1219.93 315.81 1219.87 315.794 1219.82 315.763C1219.77 315.733 1219.73 315.689 1219.7 315.636L1219.07 314.487C1219.04 314.431 1219 314.385 1218.94 314.354L1217.79 313.726C1217.74 313.697 1217.7 313.655 1217.66 313.603C1217.63 313.552 1217.62 313.493 1217.62 313.434C1217.62 313.374 1217.63 313.315 1217.66 313.264C1217.7 313.212 1217.74 313.17 1217.79 313.141L1218.94 312.512C1219 312.482 1219.04 312.437 1219.07 312.381L1219.7 311.232C1219.73 311.179 1219.77 311.136 1219.82 311.105C1219.87 311.075 1219.93 311.059 1219.99 311.059C1220.05 311.059 1220.11 311.075 1220.16 311.105C1220.21 311.136 1220.25 311.179 1220.28 311.232L1220.91 312.381C1220.94 312.437 1220.99 312.483 1221.04 312.513" fill="#FCD05C"/>
</g>
<path fill-rule="evenodd" clip-rule="evenodd" d="M1405.07 349.538L1406.56 349.079L1408.05 349.538L1407.59 348.048L1408.05 346.559L1406.56 347.018L1405.07 346.559L1405.53 348.048L1405.07 349.538Z" stroke="#00A959" stroke-width="1.097" stroke-linecap="round" stroke-linejoin="round"/>
<mask id="mask1_20_293" style="mask-type:alpha" maskUnits="userSpaceOnUse" x="1309" y="495" width="9" height="9">
<path d="M1309.38 495.07H1317.77V503.471H1309.38V495.07Z" fill="white"/>
</mask>
<g mask="url(#mask1_20_293)">
<path fill-rule="evenodd" clip-rule="evenodd" d="M1315.27 497.704L1317.6 498.978C1317.65 499.007 1317.69 499.049 1317.72 499.1C1317.75 499.152 1317.77 499.21 1317.77 499.27C1317.77 499.329 1317.75 499.388 1317.72 499.439C1317.69 499.49 1317.65 499.532 1317.6 499.561L1315.27 500.838C1315.21 500.868 1315.17 500.914 1315.14 500.97L1313.87 503.297C1313.84 503.349 1313.79 503.393 1313.74 503.423C1313.69 503.454 1313.63 503.47 1313.57 503.47C1313.51 503.47 1313.46 503.454 1313.4 503.423C1313.35 503.393 1313.31 503.349 1313.28 503.297L1312.01 500.969C1311.98 500.912 1311.93 500.866 1311.88 500.836L1309.55 499.561C1309.5 499.532 1309.45 499.49 1309.42 499.439C1309.39 499.388 1309.38 499.329 1309.38 499.27C1309.38 499.21 1309.39 499.152 1309.42 499.1C1309.45 499.049 1309.5 499.007 1309.55 498.978L1311.88 497.704C1311.93 497.674 1311.98 497.628 1312.01 497.571L1313.28 495.242C1313.31 495.19 1313.35 495.146 1313.4 495.116C1313.45 495.086 1313.51 495.07 1313.57 495.07C1313.63 495.07 1313.69 495.086 1313.74 495.116C1313.79 495.146 1313.84 495.19 1313.86 495.242L1315.14 497.571C1315.17 497.628 1315.21 497.674 1315.27 497.704" fill="#D15D64"/>
</g>
<path fill-rule="evenodd" clip-rule="evenodd" d="M18.9744 402.347L17.7314 403.589L18.9744 402.347ZM22.3503 398.966L21.109 400.208L22.3503 398.966ZM19.0343 402.485C19.3277 402.778 19.7256 402.943 20.1405 402.943C20.5554 402.943 20.9533 402.778 21.2467 402.485C21.54 402.191 21.7049 401.793 21.7049 401.377C21.7049 400.962 21.54 400.564 21.2467 400.27C20.9533 399.976 20.5554 399.811 20.1405 399.811C19.7256 399.811 19.3277 399.976 19.0343 400.27C18.741 400.564 18.5762 400.962 18.5762 401.377C18.5762 401.793 18.741 402.191 19.0343 402.485V402.485Z" stroke="#E98333" stroke-width="1.097" stroke-linecap="round" stroke-linejoin="round"/>
<g style="mix-blend-mode:lighten">
<path fill-rule="evenodd" clip-rule="evenodd" d="M161.327 983.808L162.475 983.18C162.528 983.151 162.571 983.109 162.602 983.058C162.632 983.006 162.648 982.947 162.648 982.888C162.648 982.828 162.632 982.769 162.602 982.718C162.571 982.666 162.528 982.624 162.475 982.595L161.327 981.967C161.271 981.936 161.226 981.89 161.195 981.834L160.568 980.685C160.539 980.632 160.497 980.588 160.446 980.558C160.394 980.527 160.336 980.511 160.276 980.511C160.216 980.511 160.157 980.527 160.106 980.558C160.054 980.588 160.012 980.632 159.984 980.685L159.356 981.834C159.326 981.89 159.28 981.937 159.224 981.967L158.075 982.595C158.023 982.624 157.979 982.666 157.949 982.718C157.919 982.769 157.903 982.828 157.903 982.888C157.903 982.947 157.919 983.006 157.949 983.058C157.979 983.109 158.023 983.151 158.075 983.18L159.224 983.809C159.279 983.84 159.325 983.885 159.356 983.942L159.984 985.091C160.11 985.322 160.441 985.322 160.568 985.091L161.196 983.942C161.227 983.886 161.273 983.84 161.329 983.81" fill="#FCD05C"/>
</g>
<g style="mix-blend-mode:lighten">
<path fill-rule="evenodd" clip-rule="evenodd" d="M978.495 926.335C978.495 925.683 978.236 925.058 977.775 924.598C977.315 924.137 976.69 923.878 976.039 923.879C975.388 923.879 974.764 924.138 974.303 924.599C973.843 925.061 973.585 925.686 973.585 926.338C973.586 926.989 973.845 927.614 974.305 928.075C974.766 928.536 975.391 928.794 976.042 928.793C976.693 928.793 977.317 928.534 977.777 928.073C978.238 927.611 978.496 926.986 978.495 926.334V926.335ZM56.5549 844.273L58.8821 843C58.9346 842.971 58.9784 842.929 59.009 842.878C59.0395 842.826 59.0556 842.767 59.0556 842.707C59.0556 842.647 59.0395 842.589 59.009 842.537C58.9784 842.486 58.9346 842.444 58.8821 842.415L56.5549 841.141C56.4994 841.11 56.4538 841.064 56.4232 841.008L55.1507 838.68C55.1221 838.627 55.08 838.584 55.0288 838.553C54.9775 838.523 54.919 838.507 54.8594 838.507C54.7998 838.507 54.7413 838.523 54.69 838.553C54.6387 838.584 54.5966 838.627 54.5681 838.68L53.2947 841.008C53.2641 841.064 53.2181 841.11 53.1621 841.141L50.8358 842.415C50.7837 842.444 50.7403 842.486 50.71 842.537C50.6798 842.588 50.6638 842.647 50.6638 842.707C50.6638 842.766 50.6798 842.825 50.71 842.876C50.7403 842.927 50.7837 842.969 50.8358 842.998L53.1621 844.273C53.2179 844.303 53.2635 844.349 53.2947 844.406L54.5672 846.733C54.6939 846.964 55.0249 846.964 55.1498 846.733L56.4232 844.404C56.4538 844.348 56.4994 844.303 56.5549 844.272" fill="#D15D64"/>
</g>
<g style="mix-blend-mode:lighten">
<path fill-rule="evenodd" clip-rule="evenodd" d="M531.345 939.713C531.164 939.086 530.741 938.558 530.171 938.244C529.6 937.929 528.929 937.854 528.303 938.035C527.678 938.217 527.15 938.639 526.836 939.21C526.522 939.781 526.448 940.453 526.629 941.079C526.811 941.705 527.233 942.234 527.804 942.548C528.374 942.863 529.046 942.937 529.672 942.756C530.297 942.574 530.825 942.152 531.138 941.581C531.452 941.01 531.527 940.338 531.345 939.712L531.345 939.713ZM-377.093 1117.05L-375.211 1115.18C-375.169 1115.14 -375.138 1115.09 -375.123 1115.03C-375.108 1114.97 -375.109 1114.91 -375.126 1114.85C-375.142 1114.79 -375.174 1114.74 -375.218 1114.7C-375.261 1114.66 -375.315 1114.63 -375.374 1114.62L-377.963 1114.04C-378.025 1114.03 -378.082 1114 -378.127 1113.95L-379.996 1112.07C-380.038 1112.02 -380.091 1111.99 -380.148 1111.98C-380.206 1111.96 -380.267 1111.97 -380.324 1111.98C-380.381 1112 -380.433 1112.03 -380.474 1112.07C-380.514 1112.12 -380.543 1112.17 -380.556 1112.23L-381.132 1114.82C-381.146 1114.88 -381.177 1114.94 -381.222 1114.98L-383.103 1116.85C-383.145 1116.9 -383.175 1116.95 -383.19 1117.01C-383.205 1117.06 -383.204 1117.13 -383.187 1117.18C-383.171 1117.24 -383.139 1117.29 -383.096 1117.33C-383.053 1117.37 -382.999 1117.4 -382.941 1117.41L-380.352 1117.99C-380.29 1118.01 -380.234 1118.04 -380.188 1118.08L-378.319 1119.97C-378.133 1120.15 -377.815 1120.06 -377.759 1119.8L-377.183 1117.21C-377.169 1117.15 -377.138 1117.09 -377.093 1117.05" fill="#D15D64"/>
</g>
<g style="mix-blend-mode:lighten">
<path fill-rule="evenodd" clip-rule="evenodd" d="M133.462 639.783L134.61 639.154C134.663 639.126 134.706 639.083 134.737 639.032C134.767 638.98 134.783 638.922 134.783 638.862C134.783 638.802 134.767 638.744 134.737 638.692C134.706 638.641 134.663 638.598 134.61 638.569L133.462 637.941C133.407 637.911 133.361 637.865 133.33 637.81L132.703 636.66C132.674 636.608 132.632 636.564 132.581 636.533C132.529 636.502 132.471 636.486 132.411 636.486C132.351 636.486 132.292 636.502 132.241 636.533C132.189 636.564 132.147 636.608 132.119 636.66L131.491 637.81C131.461 637.866 131.415 637.912 131.359 637.943L130.21 638.57C130.158 638.599 130.114 638.641 130.084 638.693C130.054 638.744 130.038 638.803 130.038 638.863C130.038 638.923 130.054 638.981 130.084 639.033C130.114 639.084 130.158 639.126 130.21 639.155L131.359 639.785C131.414 639.816 131.46 639.861 131.491 639.917L132.119 641.066C132.245 641.297 132.576 641.297 132.703 641.066L133.331 639.917C133.362 639.861 133.408 639.815 133.464 639.785" fill="#FCD05C"/>
</g>
<g style="mix-blend-mode:lighten">
<path fill-rule="evenodd" clip-rule="evenodd" d="M1188.89 866.25L1191.22 864.977C1191.27 864.948 1191.31 864.906 1191.34 864.854C1191.37 864.803 1191.39 864.744 1191.39 864.684C1191.39 864.624 1191.37 864.565 1191.34 864.514C1191.31 864.462 1191.27 864.42 1191.22 864.391L1188.89 863.117C1188.83 863.087 1188.79 863.041 1188.76 862.985L1187.49 860.657C1187.46 860.604 1187.42 860.56 1187.36 860.529C1187.31 860.498 1187.25 860.482 1187.19 860.482C1187.13 860.482 1187.07 860.498 1187.02 860.529C1186.97 860.56 1186.93 860.604 1186.9 860.657L1185.63 862.985C1185.6 863.041 1185.55 863.087 1185.49 863.117L1183.17 864.391C1183.12 864.42 1183.07 864.462 1183.04 864.513C1183.01 864.565 1183 864.624 1183 864.683C1183 864.743 1183.01 864.802 1183.04 864.853C1183.07 864.905 1183.12 864.947 1183.17 864.976L1185.5 866.25C1185.55 866.28 1185.6 866.326 1185.63 866.382L1186.9 868.709C1187.03 868.941 1187.36 868.941 1187.48 868.709L1188.76 866.381C1188.79 866.325 1188.83 866.279 1188.89 866.249" fill="#D15D64"/>
</g>
<g style="mix-blend-mode:lighten">
<path fill-rule="evenodd" clip-rule="evenodd" d="M738.263 984.235L740.144 982.366C740.187 982.324 740.217 982.271 740.232 982.213C740.247 982.155 740.246 982.094 740.229 982.036C740.213 981.979 740.181 981.927 740.137 981.886C740.094 981.845 740.04 981.816 739.982 981.803L737.393 981.226C737.331 981.212 737.274 981.181 737.23 981.136L735.361 979.252C735.319 979.209 735.266 979.179 735.208 979.164C735.15 979.148 735.089 979.149 735.032 979.166C734.974 979.182 734.922 979.214 734.881 979.258C734.841 979.302 734.812 979.356 734.8 979.415L734.225 982.005C734.211 982.068 734.178 982.125 734.132 982.169L732.253 984.039C732.21 984.081 732.18 984.134 732.165 984.192C732.15 984.25 732.151 984.31 732.167 984.368C732.184 984.425 732.216 984.477 732.259 984.518C732.303 984.559 732.357 984.588 732.415 984.601L735.004 985.178C735.067 985.191 735.124 985.223 735.169 985.268L737.037 987.15C737.223 987.338 737.542 987.246 737.597 986.989L738.173 984.398C738.187 984.336 738.218 984.279 738.264 984.234" fill="#D15D64"/>
</g>
<g style="mix-blend-mode:lighten">
<path fill-rule="evenodd" clip-rule="evenodd" d="M1143.36 886.602L1144.51 885.974C1144.56 885.945 1144.6 885.903 1144.63 885.852C1144.66 885.8 1144.68 885.741 1144.68 885.682C1144.68 885.622 1144.66 885.563 1144.63 885.512C1144.6 885.46 1144.56 885.418 1144.51 885.389L1143.36 884.76C1143.3 884.73 1143.26 884.685 1143.23 884.629L1142.6 883.48C1142.57 883.427 1142.53 883.384 1142.48 883.353C1142.43 883.323 1142.37 883.307 1142.31 883.307C1142.25 883.307 1142.19 883.323 1142.14 883.353C1142.09 883.384 1142.04 883.427 1142.01 883.48L1141.39 884.629C1141.36 884.685 1141.31 884.731 1141.25 884.761L1140.11 885.391C1140.05 885.42 1140.01 885.462 1139.98 885.514C1139.95 885.565 1139.93 885.624 1139.93 885.683C1139.93 885.743 1139.95 885.802 1139.98 885.853C1140.01 885.905 1140.05 885.947 1140.11 885.976L1141.25 886.604C1141.31 886.634 1141.36 886.68 1141.39 886.737L1142.01 887.886C1142.14 888.117 1142.47 888.117 1142.6 887.886L1143.23 886.737C1143.26 886.681 1143.3 886.635 1143.36 886.604" fill="#7B63AB"/>
</g>
<g style="mix-blend-mode:lighten">
<path fill-rule="evenodd" clip-rule="evenodd" d="M678.676 855.736L679.604 854.814C679.647 854.771 679.677 854.719 679.692 854.661C679.707 854.603 679.706 854.542 679.689 854.485C679.672 854.427 679.641 854.375 679.597 854.334C679.554 854.293 679.5 854.265 679.442 854.252L678.164 853.967C678.102 853.953 678.046 853.922 678.001 853.877L677.079 852.947C677.037 852.905 676.984 852.875 676.926 852.86C676.868 852.845 676.808 852.846 676.75 852.863C676.693 852.879 676.641 852.911 676.6 852.954C676.559 852.998 676.531 853.052 676.518 853.11L676.234 854.388C676.221 854.45 676.189 854.507 676.144 854.552L675.216 855.476C675.173 855.518 675.143 855.571 675.128 855.629C675.113 855.687 675.114 855.747 675.131 855.805C675.148 855.862 675.179 855.914 675.223 855.955C675.266 855.996 675.32 856.025 675.378 856.038L676.656 856.322C676.718 856.336 676.774 856.367 676.82 856.413L677.742 857.343C677.928 857.529 678.246 857.437 678.303 857.18L678.587 855.901C678.601 855.839 678.633 855.782 678.678 855.737" fill="#7B63AB"/>
</g>
<path fill-rule="evenodd" clip-rule="evenodd" d="M306.515 724.958L309.516 725.708L308.767 722.704L306.515 724.958Z" stroke="#E98333" stroke-width="1.097" stroke-linecap="round" stroke-linejoin="round"/>
<g style="mix-blend-mode:lighten">
<path fill-rule="evenodd" clip-rule="evenodd" d="M400.434 598.64L402.138 597.706L400.434 596.775L399.501 595.069L398.569 596.775L396.865 597.706L398.569 598.64L399.501 600.345L400.434 598.64Z" fill="#00A959"/>
</g>
<g style="mix-blend-mode:lighten">
<path fill-rule="evenodd" clip-rule="evenodd" d="M109.754 1004.87L112.079 1003.6C112.132 1003.57 112.176 1003.53 112.206 1003.48C112.237 1003.43 112.253 1003.37 112.253 1003.31C112.253 1003.25 112.237 1003.19 112.206 1003.14C112.176 1003.09 112.132 1003.04 112.079 1003.02L109.752 1001.74C109.697 1001.71 109.651 1001.67 109.62 1001.61L108.348 999.282C108.319 999.23 108.277 999.186 108.226 999.155C108.175 999.125 108.116 999.109 108.056 999.109C107.997 999.109 107.938 999.125 107.887 999.155C107.836 999.186 107.794 999.23 107.765 999.282L106.493 1001.61C106.461 1001.67 106.414 1001.71 106.358 1001.74L104.034 1003.02C103.981 1003.05 103.938 1003.09 103.907 1003.14C103.877 1003.19 103.861 1003.25 103.861 1003.31C103.861 1003.37 103.877 1003.43 103.907 1003.48C103.938 1003.53 103.981 1003.57 104.034 1003.6L106.359 1004.88C106.415 1004.91 106.461 1004.95 106.492 1005.01L107.765 1007.34C107.892 1007.57 108.221 1007.57 108.348 1007.34L109.62 1005.01C109.651 1004.95 109.696 1004.91 109.752 1004.87" fill="#E98333"/>
</g>
<g style="mix-blend-mode:lighten">
<path fill-rule="evenodd" clip-rule="evenodd" d="M212.629 1089.47C212.629 1088.82 212.37 1088.2 211.909 1087.73C211.449 1087.27 210.824 1087.02 210.173 1087.02C209.522 1087.02 208.897 1087.28 208.437 1087.74C207.977 1088.2 207.719 1088.82 207.719 1089.47C207.719 1090.13 207.979 1090.75 208.439 1091.21C208.9 1091.67 209.525 1091.93 210.176 1091.93C210.827 1091.93 211.451 1091.67 211.911 1091.21C212.371 1090.75 212.63 1090.12 212.629 1089.47" fill="#D15D64"/>
</g>
<path fill-rule="evenodd" clip-rule="evenodd" d="M2.41393 961.267L1.69872 962.619C1.66414 962.684 1.61126 962.737 1.54673 962.771L0.195702 963.488C0.136647 963.519 0.0872052 963.566 0.0527167 963.623C0.0182282 963.68 0 963.746 0 963.813C0 963.879 0.0182282 963.945 0.0527167 964.002C0.0872052 964.059 0.136647 964.106 0.195702 964.137L1.54673 964.853C1.61091 964.887 1.66495 964.941 1.69872 965.005L2.41393 966.358C2.55156 966.62 2.92479 966.62 3.06411 966.358L3.77762 965.005C3.8122 964.941 3.86508 964.888 3.92961 964.853L5.28065 964.137C5.3397 964.106 5.38914 964.059 5.42363 964.002C5.45812 963.945 5.47634 963.879 5.47634 963.813C5.47634 963.746 5.45812 963.68 5.42363 963.623C5.38914 963.566 5.3397 963.519 5.28065 963.488L3.92961 962.772C3.86496 962.738 3.81204 962.685 3.77762 962.62L3.06327 961.268C3.03211 961.208 2.98536 961.159 2.92806 961.124C2.87077 961.089 2.80511 961.071 2.73817 961.071C2.67124 961.071 2.60558 961.089 2.54828 961.124C2.49099 961.159 2.44424 961.208 2.41308 961.268L2.41393 961.267Z" stroke="#7B63AB" stroke-width="1.097" stroke-linecap="round" stroke-linejoin="round"/>
<g style="mix-blend-mode:lighten">
<path fill-rule="evenodd" clip-rule="evenodd" d="M1387.32 907.668L1389.65 906.395C1389.7 906.366 1389.74 906.324 1389.77 906.273C1389.81 906.221 1389.82 906.162 1389.82 906.102C1389.82 906.042 1389.81 905.984 1389.77 905.932C1389.74 905.881 1389.7 905.838 1389.65 905.809L1387.32 904.536C1387.27 904.505 1387.22 904.459 1387.19 904.404L1385.92 902.075C1385.89 902.022 1385.85 901.978 1385.8 901.947C1385.75 901.917 1385.69 901.9 1385.63 901.9C1385.57 901.9 1385.51 901.917 1385.46 901.947C1385.4 901.978 1385.36 902.022 1385.33 902.075L1384.06 904.404C1384.03 904.46 1383.98 904.506 1383.93 904.536L1381.6 905.809C1381.55 905.838 1381.51 905.88 1381.48 905.932C1381.45 905.983 1381.43 906.042 1381.43 906.102C1381.43 906.162 1381.45 906.22 1381.48 906.272C1381.51 906.323 1381.55 906.366 1381.6 906.394L1383.93 907.668C1383.99 907.699 1384.03 907.745 1384.06 907.801L1385.33 910.128C1385.46 910.36 1385.79 910.36 1385.92 910.128L1387.19 907.799C1387.22 907.743 1387.27 907.698 1387.32 907.667" fill="#D15D64"/>
</g>
<g style="mix-blend-mode:lighten">
<path fill-rule="evenodd" clip-rule="evenodd" d="M1341.79 945.771L1342.94 945.143C1342.99 945.114 1343.04 945.072 1343.07 945.02C1343.1 944.969 1343.11 944.91 1343.11 944.851C1343.11 944.791 1343.1 944.732 1343.07 944.681C1343.04 944.629 1342.99 944.587 1342.94 944.558L1341.79 943.929C1341.74 943.899 1341.69 943.853 1341.66 943.798L1341.03 942.649C1341 942.596 1340.96 942.553 1340.91 942.522C1340.86 942.492 1340.8 942.476 1340.74 942.476C1340.68 942.476 1340.62 942.492 1340.57 942.522C1340.52 942.553 1340.48 942.596 1340.45 942.649L1339.82 943.798C1339.79 943.854 1339.74 943.9 1339.69 943.93L1338.54 944.56C1338.49 944.589 1338.44 944.631 1338.41 944.682C1338.38 944.734 1338.37 944.792 1338.37 944.852C1338.37 944.912 1338.38 944.971 1338.41 945.022C1338.44 945.074 1338.49 945.116 1338.54 945.145L1339.69 945.773C1339.74 945.803 1339.79 945.849 1339.82 945.905L1340.45 947.055C1340.57 947.286 1340.91 947.286 1341.03 947.055L1341.66 945.905C1341.69 945.85 1341.74 945.804 1341.79 945.773" fill="#7B63AB"/>
</g>
<g style="mix-blend-mode:lighten">
<path fill-rule="evenodd" clip-rule="evenodd" d="M1320.53 1109.61L1321.63 1109.01C1321.68 1108.98 1321.72 1108.94 1321.75 1108.89C1321.78 1108.84 1321.79 1108.79 1321.79 1108.73C1321.79 1108.67 1321.78 1108.62 1321.75 1108.57C1321.72 1108.52 1321.68 1108.48 1321.63 1108.45L1320.53 1107.85C1320.48 1107.82 1320.43 1107.77 1320.4 1107.72L1319.8 1106.62C1319.78 1106.57 1319.74 1106.53 1319.69 1106.5C1319.64 1106.47 1319.58 1106.46 1319.52 1106.46C1319.47 1106.46 1319.41 1106.47 1319.36 1106.5C1319.31 1106.53 1319.27 1106.57 1319.25 1106.62L1318.65 1107.72C1318.62 1107.77 1318.57 1107.82 1318.52 1107.85L1317.42 1108.45C1317.37 1108.47 1317.33 1108.52 1317.3 1108.56C1317.27 1108.61 1317.25 1108.67 1317.25 1108.73C1317.25 1108.78 1317.27 1108.84 1317.3 1108.89C1317.33 1108.94 1317.37 1108.98 1317.42 1109.01L1318.52 1109.61C1318.57 1109.64 1318.62 1109.68 1318.64 1109.73L1319.24 1110.83C1319.27 1110.88 1319.31 1110.93 1319.36 1110.96C1319.41 1110.98 1319.47 1111 1319.52 1111C1319.58 1111 1319.64 1110.98 1319.69 1110.96C1319.74 1110.93 1319.78 1110.88 1319.8 1110.83L1320.4 1109.73C1320.43 1109.68 1320.48 1109.64 1320.53 1109.61Z" fill="#D15D64"/>
</g>
<g style="mix-blend-mode:lighten">
<path fill-rule="evenodd" clip-rule="evenodd" d="M1363.75 1025.23L1364.89 1024.6C1364.95 1024.57 1364.99 1024.53 1365.02 1024.48C1365.05 1024.42 1365.07 1024.37 1365.07 1024.31C1365.07 1024.25 1365.05 1024.19 1365.02 1024.14C1364.99 1024.08 1364.95 1024.04 1364.89 1024.01L1363.75 1023.39C1363.69 1023.35 1363.64 1023.31 1363.61 1023.25L1362.99 1022.1C1362.96 1022.05 1362.92 1022.01 1362.86 1021.98C1362.81 1021.95 1362.75 1021.93 1362.69 1021.93C1362.63 1021.93 1362.58 1021.95 1362.52 1021.98C1362.47 1022.01 1362.43 1022.05 1362.4 1022.1L1361.77 1023.25C1361.74 1023.31 1361.7 1023.35 1361.64 1023.39L1360.49 1024.01C1360.44 1024.04 1360.4 1024.08 1360.37 1024.14C1360.34 1024.19 1360.32 1024.25 1360.32 1024.31C1360.32 1024.37 1360.34 1024.42 1360.37 1024.48C1360.4 1024.53 1360.44 1024.57 1360.49 1024.6L1361.64 1025.23C1361.7 1025.26 1361.74 1025.3 1361.77 1025.36L1362.4 1026.51C1362.53 1026.74 1362.86 1026.74 1362.99 1026.51L1363.61 1025.36C1363.65 1025.3 1363.69 1025.26 1363.75 1025.23" fill="#FCD05C"/>
</g>
<mask id="mask2_20_293" style="mask-type:alpha" maskUnits="userSpaceOnUse" x="1300" y="797" width="5" height="6">
<path d="M1304.78 802.103V797.35H1300.04V802.104H1304.78V802.103Z" fill="white"/>
</mask>
<g mask="url(#mask2_20_293)">
<path fill-rule="evenodd" clip-rule="evenodd" d="M1303.46 800.647L1304.61 800.019C1304.67 799.99 1304.71 799.948 1304.74 799.896C1304.77 799.845 1304.79 799.786 1304.79 799.726C1304.79 799.666 1304.77 799.608 1304.74 799.556C1304.71 799.505 1304.67 799.462 1304.61 799.434L1303.46 798.806C1303.41 798.775 1303.36 798.729 1303.33 798.674L1302.7 797.524C1302.68 797.472 1302.63 797.428 1302.58 797.397C1302.53 797.367 1302.47 797.35 1302.41 797.35C1302.35 797.35 1302.29 797.367 1302.24 797.397C1302.19 797.428 1302.15 797.472 1302.12 797.524L1301.49 798.674C1301.46 798.729 1301.42 798.775 1301.36 798.806L1300.21 799.434C1300.16 799.463 1300.12 799.505 1300.09 799.556C1300.06 799.608 1300.04 799.666 1300.04 799.726C1300.04 799.786 1300.06 799.845 1300.09 799.896C1300.12 799.947 1300.16 799.99 1300.21 800.019L1301.36 800.648C1301.42 800.678 1301.46 800.724 1301.49 800.78L1302.12 801.93C1302.15 801.982 1302.19 802.026 1302.24 802.057C1302.3 802.087 1302.35 802.104 1302.41 802.104C1302.47 802.104 1302.53 802.087 1302.58 802.057C1302.64 802.026 1302.68 801.982 1302.71 801.93L1303.33 800.78C1303.36 800.724 1303.41 800.679 1303.47 800.648" fill="#7B63AB"/>
</g>
<path fill-rule="evenodd" clip-rule="evenodd" d="M942.344 742.146L944.692 739.796L942.344 742.146ZM935.589 748.908L937.937 746.558L935.589 748.908ZM940.324 740.376C940.324 739.533 935.694 744.167 936.536 744.167C935.695 744.167 940.325 748.803 940.325 747.96C940.325 748.802 944.954 744.167 944.113 744.167C944.954 744.167 940.325 739.532 940.325 740.375L940.324 740.376Z" stroke="#7B63AB" stroke-width="1.097" stroke-linecap="round" stroke-linejoin="round"/>
<path fill-rule="evenodd" clip-rule="evenodd" d="M445.439 772.821L447.041 769.911L445.439 772.821ZM440.829 781.194L442.431 778.284L440.829 781.194ZM443.006 771.682C442.772 770.872 439.612 776.611 440.421 776.377C439.613 776.611 445.349 779.777 445.115 778.968C445.349 779.776 448.508 774.037 447.699 774.271C448.508 774.037 442.773 770.871 443.007 771.681L443.006 771.682Z" stroke="#7B63AB" stroke-width="1.097" stroke-linecap="round" stroke-linejoin="round"/>
<g style="mix-blend-mode:lighten">
<path fill-rule="evenodd" clip-rule="evenodd" d="M1128.94 620.276L1131.26 619.002C1131.32 618.974 1131.36 618.931 1131.39 618.88C1131.42 618.828 1131.44 618.77 1131.44 618.71C1131.44 618.65 1131.42 618.591 1131.39 618.54C1131.36 618.488 1131.32 618.446 1131.26 618.417L1128.94 617.144C1128.88 617.114 1128.83 617.068 1128.8 617.013L1127.53 614.684C1127.51 614.631 1127.46 614.587 1127.41 614.556C1127.36 614.525 1127.3 614.509 1127.24 614.509C1127.18 614.509 1127.12 614.525 1127.07 614.556C1127.02 614.587 1126.98 614.631 1126.95 614.684L1125.68 617.013C1125.65 617.069 1125.6 617.115 1125.54 617.145L1123.22 618.419C1123.17 618.448 1123.12 618.49 1123.09 618.541C1123.06 618.592 1123.04 618.651 1123.04 618.711C1123.04 618.77 1123.06 618.829 1123.09 618.88C1123.12 618.932 1123.17 618.974 1123.22 619.002L1125.54 620.277C1125.6 620.307 1125.65 620.353 1125.68 620.41L1126.95 622.737C1127.08 622.969 1127.41 622.969 1127.53 622.737L1128.8 620.409C1128.84 620.352 1128.88 620.306 1128.94 620.275" fill="#FCD05C"/>
</g>
<g style="mix-blend-mode:lighten">
<path fill-rule="evenodd" clip-rule="evenodd" d="M590.822 603.904L592.703 602.034C592.745 601.992 592.776 601.939 592.791 601.881C592.806 601.823 592.805 601.762 592.788 601.705C592.771 601.647 592.74 601.595 592.696 601.555C592.652 601.514 592.599 601.485 592.54 601.472L589.952 600.896C589.89 600.882 589.833 600.851 589.788 600.806L587.92 598.922C587.878 598.879 587.825 598.849 587.767 598.833C587.709 598.818 587.648 598.819 587.591 598.835C587.533 598.852 587.481 598.884 587.44 598.928C587.4 598.972 587.371 599.026 587.359 599.084L586.784 601.675C586.77 601.737 586.739 601.795 586.693 601.839L584.812 603.709C584.77 603.751 584.74 603.804 584.725 603.862C584.71 603.919 584.71 603.98 584.727 604.037C584.744 604.095 584.775 604.147 584.819 604.187C584.862 604.228 584.916 604.257 584.974 604.27L587.563 604.848C587.625 604.861 587.682 604.893 587.727 604.938L589.596 606.821C589.782 607.008 590.1 606.916 590.155 606.659L590.731 604.068C590.746 604.005 590.778 603.948 590.824 603.903" fill="#FCD05C"/>
</g>
<g style="mix-blend-mode:lighten">
<path fill-rule="evenodd" clip-rule="evenodd" d="M795.262 248.234L797.143 246.364C797.186 246.322 797.216 246.269 797.231 246.212C797.246 246.154 797.245 246.093 797.228 246.035C797.212 245.978 797.18 245.926 797.136 245.885C797.093 245.844 797.039 245.815 796.981 245.802L794.392 245.226C794.33 245.212 794.273 245.181 794.228 245.136L792.36 243.252C792.318 243.209 792.266 243.179 792.208 243.163C792.15 243.148 792.089 243.149 792.031 243.166C791.974 243.182 791.922 243.214 791.881 243.258C791.84 243.302 791.812 243.356 791.799 243.415L791.225 246.005C791.211 246.068 791.179 246.125 791.133 246.169L789.252 248.04C789.21 248.082 789.18 248.134 789.165 248.192C789.15 248.25 789.151 248.31 789.167 248.368C789.184 248.425 789.216 248.477 789.259 248.518C789.303 248.559 789.356 248.587 789.414 248.6L792.003 249.178C792.066 249.192 792.123 249.223 792.168 249.269L794.036 251.151C794.222 251.339 794.541 251.246 794.596 250.99L795.172 248.399C795.186 248.336 795.218 248.278 795.264 248.233" fill="#FCD05C"/>
</g>
<g style="mix-blend-mode:lighten">
<path fill-rule="evenodd" clip-rule="evenodd" d="M1035.12 782.488L1036.22 781.888C1036.27 781.86 1036.31 781.82 1036.34 781.771C1036.37 781.722 1036.39 781.666 1036.39 781.609C1036.39 781.552 1036.37 781.496 1036.34 781.447C1036.31 781.398 1036.27 781.357 1036.22 781.33L1035.12 780.728C1035.07 780.699 1035.03 780.655 1035 780.601L1034.4 779.502C1034.37 779.452 1034.33 779.411 1034.28 779.382C1034.23 779.353 1034.18 779.338 1034.12 779.338C1034.06 779.338 1034.01 779.353 1033.96 779.382C1033.91 779.411 1033.87 779.452 1033.84 779.502L1033.24 780.601C1033.21 780.655 1033.17 780.699 1033.11 780.728L1032.02 781.328C1031.96 781.355 1031.92 781.396 1031.89 781.445C1031.86 781.494 1031.85 781.551 1031.85 781.608C1031.85 781.665 1031.86 781.721 1031.89 781.77C1031.92 781.82 1031.96 781.86 1032.02 781.888L1033.11 782.488C1033.17 782.517 1033.21 782.561 1033.24 782.615L1033.84 783.713C1033.87 783.764 1033.91 783.806 1033.96 783.836C1034 783.865 1034.06 783.88 1034.12 783.88C1034.18 783.88 1034.23 783.865 1034.28 783.836C1034.33 783.806 1034.37 783.764 1034.4 783.713L1035 782.615C1035.03 782.561 1035.07 782.517 1035.12 782.488Z" fill="#D15D64"/>
</g>
<g style="mix-blend-mode:lighten">
<path fill-rule="evenodd" clip-rule="evenodd" d="M631.021 365.377L631.909 364.495C631.949 364.455 631.978 364.405 631.992 364.349C632.006 364.294 632.005 364.236 631.989 364.182C631.974 364.127 631.943 364.077 631.902 364.038C631.861 363.999 631.809 363.972 631.754 363.959L630.532 363.686C630.473 363.673 630.418 363.643 630.375 363.6L629.494 362.711C629.454 362.67 629.404 362.642 629.348 362.627C629.293 362.613 629.235 362.614 629.181 362.63C629.126 362.646 629.077 362.676 629.038 362.717C628.999 362.759 628.971 362.81 628.959 362.865L628.688 364.088C628.674 364.147 628.644 364.202 628.6 364.245L627.712 365.126C627.672 365.167 627.643 365.217 627.628 365.273C627.614 365.328 627.615 365.386 627.631 365.441C627.647 365.496 627.677 365.546 627.719 365.585C627.761 365.624 627.812 365.652 627.868 365.664L629.089 365.936C629.148 365.949 629.203 365.979 629.246 366.022L630.127 366.911C630.167 366.952 630.218 366.981 630.273 366.996C630.329 367.011 630.387 367.01 630.442 366.994C630.497 366.978 630.547 366.948 630.586 366.906C630.625 366.864 630.652 366.812 630.664 366.756L630.935 365.534C630.948 365.474 630.978 365.42 631.021 365.377Z" fill="#D15D64"/>
</g>
<g style="mix-blend-mode:lighten">
<path fill-rule="evenodd" clip-rule="evenodd" d="M1221.04 707.405L1222.19 706.776C1222.24 706.747 1222.29 706.705 1222.32 706.653C1222.35 706.602 1222.36 706.543 1222.36 706.484C1222.36 706.424 1222.35 706.365 1222.32 706.314C1222.29 706.262 1222.24 706.22 1222.19 706.191L1221.04 705.563C1220.99 705.532 1220.94 705.487 1220.91 705.431L1220.28 704.282C1220.25 704.229 1220.21 704.185 1220.16 704.155C1220.11 704.124 1220.05 704.108 1219.99 704.108C1219.93 704.108 1219.87 704.124 1219.82 704.155C1219.77 704.185 1219.73 704.229 1219.7 704.282L1219.07 705.431C1219.04 705.488 1219 705.534 1218.94 705.565L1217.79 706.192C1217.74 706.221 1217.7 706.263 1217.66 706.315C1217.63 706.366 1217.62 706.425 1217.62 706.484C1217.62 706.544 1217.63 706.603 1217.66 706.654C1217.7 706.706 1217.74 706.748 1217.79 706.777L1218.94 707.407C1219 707.438 1219.04 707.483 1219.07 707.538L1219.7 708.688C1219.83 708.919 1220.16 708.919 1220.28 708.688L1220.91 707.538C1220.94 707.483 1220.99 707.437 1221.04 707.407" fill="#FCD05C"/>
</g>
<g style="mix-blend-mode:lighten">
<path fill-rule="evenodd" clip-rule="evenodd" d="M703.51 662.01L704.439 661.087C704.481 661.044 704.511 660.992 704.526 660.934C704.541 660.876 704.54 660.815 704.523 660.758C704.507 660.7 704.475 660.648 704.431 660.607C704.388 660.566 704.334 660.538 704.276 660.525L702.998 660.24C702.937 660.226 702.88 660.195 702.835 660.15L701.913 659.22C701.871 659.178 701.818 659.147 701.76 659.132C701.703 659.117 701.642 659.118 701.584 659.135C701.527 659.151 701.475 659.183 701.434 659.227C701.393 659.27 701.365 659.324 701.352 659.383L701.069 660.661C701.055 660.724 701.024 660.781 700.978 660.827L700.05 661.748C700.007 661.79 699.977 661.843 699.962 661.901C699.948 661.959 699.948 662.02 699.965 662.077C699.982 662.134 700.013 662.186 700.057 662.227C700.1 662.268 700.154 662.297 700.212 662.31L701.49 662.596C701.552 662.61 701.609 662.641 701.654 662.686L702.576 663.616C702.762 663.802 703.08 663.71 703.138 663.453L703.422 662.174C703.436 662.112 703.467 662.056 703.512 662.011" fill="#FCD05C"/>
</g>
<path fill-rule="evenodd" clip-rule="evenodd" d="M1405.07 655.083L1406.56 655.541L1408.05 655.083L1407.59 656.572L1408.05 658.061L1406.56 657.602L1405.07 658.062L1405.53 656.573L1405.07 655.083Z" stroke="#00A959" stroke-width="1.097" stroke-linecap="round" stroke-linejoin="round"/>
<path fill-rule="evenodd" clip-rule="evenodd" d="M18.9744 578.163L17.7314 576.921L18.9744 578.163ZM22.3503 581.544L21.109 580.302L22.3503 581.544ZM19.0343 578.025C19.3277 577.732 19.7256 577.567 20.1405 577.567C20.5554 577.567 20.9533 577.732 21.2467 578.025C21.54 578.319 21.7049 578.717 21.7049 579.133C21.7049 579.548 21.54 579.946 21.2467 580.24C20.9533 580.534 20.5554 580.699 20.1405 580.699C19.7256 580.699 19.3277 580.534 19.0343 580.24C18.741 579.946 18.5762 579.548 18.5762 579.133C18.5762 578.717 18.741 578.319 19.0343 578.025Z" stroke="#E98333" stroke-width="1.097" stroke-linecap="round" stroke-linejoin="round"/>
<g opacity="0.5">
<path opacity="0.5" fill-rule="evenodd" clip-rule="evenodd" d="M272.156 348.569H271.131L271.141 348.07C271.141 347.411 270.547 345.522 269.618 345.522C269.323 345.522 269.025 345.674 268.827 345.911C268.74 346.007 268.675 346.121 268.639 346.245C268.602 346.37 268.593 346.501 268.614 346.629C268.741 347.381 268.756 347.787 268.293 348.294C267.787 348.848 267.542 349.08 267.081 349.08H266.065C265.527 349.077 265.052 349.554 265.052 350.093V352.125C265.052 352.664 265.527 353.141 266.065 353.141H266.938L267.67 353.578C267.75 353.625 267.841 353.649 267.934 353.649H271.145C271.719 353.649 272.586 353.395 272.666 352.694L273.165 349.672C273.175 349.631 273.175 349.601 273.175 349.571C273.158 348.975 272.748 348.57 272.16 348.57H272.155L272.156 348.569ZM272.156 352.633C272.131 352.983 271.511 353.14 271.141 353.14H267.929L267.081 352.633V349.584C267.771 349.584 268.152 349.204 268.668 348.629C269.293 347.938 269.248 347.327 269.116 346.531C269.075 346.277 269.369 346.024 269.622 346.024C270.045 346.024 270.637 347.41 270.637 348.055L270.627 348.579C270.627 348.93 270.796 349.072 271.145 349.072H272.16C272.481 349.072 272.658 349.255 272.666 349.579L272.16 352.628L272.155 352.633H272.156Z" fill="#27363A"/>
<path opacity="0.5" fill-rule="evenodd" clip-rule="evenodd" d="M297.701 377.489C297.701 373.673 296.377 370.169 294.167 367.405C292.379 365.527 290.424 366.699 289.886 375.46C289.239 385.969 283.713 378.951 279.309 383.9C274.915 388.84 264.685 379.858 267.327 385.109C270.046 390.189 275.399 393.646 281.561 393.646C290.474 393.646 297.701 386.413 297.701 377.489Z" fill="#4D595D"/>
<path opacity="0.5" fill-rule="evenodd" clip-rule="evenodd" d="M281.56 361.333C290.474 361.333 297.7 368.566 297.7 377.489C297.7 386.413 290.475 393.646 281.56 393.646C272.646 393.646 265.421 386.413 265.421 377.489C265.421 368.566 272.646 361.333 281.56 361.333H281.56Z" stroke="#DBE7F0" stroke-width="1.097" stroke-linecap="round" stroke-linejoin="round"/>
<path opacity="0.5" fill-rule="evenodd" clip-rule="evenodd" d="M281.56 361.333C290.474 361.333 297.7 368.566 297.7 377.489C297.7 386.413 290.475 393.646 281.56 393.646C272.646 393.646 265.421 386.413 265.421 377.489C265.421 368.566 272.646 361.333 281.56 361.333H281.56Z" stroke="#DBE7F0" stroke-width="1.097" stroke-linecap="round" stroke-linejoin="round"/>
<path opacity="0.5" d="M275.3 392.386C276.462 389.411 278.836 385.229 283.45 382.875C288.964 380.064 292.914 382.393 297.007 382.187M266.693 371.19C269.784 372.547 273.55 373.85 276.616 373.85C283.014 373.85 284.469 369.92 292.029 369.774C293.393 369.749 294.622 369.732 295.716 369.724L266.693 371.19Z" stroke="#DBE7F0" stroke-width="1.097" stroke-linecap="round" stroke-linejoin="round"/>
<path opacity="0.5" d="M277.39 393.102C280.193 390.124 287.058 384.1 295.204 386.124H295.206M267.973 386.216C270.463 385.874 274.555 384.794 277.925 381.42C283.161 376.179 284.613 376.035 287.813 376.035C290.433 376.035 294.324 378.769 297.642 378.878L267.973 386.216ZM275.042 362.704C278.403 363.224 282.461 364.278 285.05 366.426C287.073 368.104 290.563 367.988 294.038 367.24L275.042 362.704ZM271.696 364.7C272.935 364.969 274.076 365.261 274.817 365.501C277.263 366.292 279.422 366.58 278.799 368.318C278.006 370.524 274.345 369.279 271.9 368.487C271.098 368.228 270.095 367.752 269.113 367.204L271.696 364.7ZM265.526 375.632C268.754 376.094 273.248 377.181 273.709 379.672C274.026 381.397 270.458 382.364 266.35 382.908L265.526 375.632Z" stroke="#DBE7F0" stroke-width="1.097" stroke-linecap="round" stroke-linejoin="round"/>
</g>
<g opacity="0.5">
<path opacity="0.5" fill-rule="evenodd" clip-rule="evenodd" d="M1253.18 224.36C1218.94 179.726 1216.03 257.456 1149.72 244.395C1168.3 267.989 1197.11 283.134 1229.45 283.134C1285.5 283.134 1330.93 237.654 1330.93 181.551C1330.93 148.286 1314.96 118.76 1290.27 100.229L1286.02 101.924C1304.63 124.928 1269.64 245.827 1253.18 224.359" fill="#4D595D"/>
<path opacity="0.5" d="M1212.34 81.4111C1218.76 80.3128 1225.27 79.8393 1231.78 79.997M1127.97 179.976C1128.07 173.342 1128.81 166.657 1130.25 160.013L1127.97 179.976ZM1166.02 260.629C1163.52 258.629 1161.12 256.51 1158.82 254.281L1166.02 260.629ZM1263.09 276.996C1254.74 279.959 1246.04 281.816 1237.21 282.519L1263.09 276.996ZM1325.12 148.512C1326.42 152.316 1327.5 156.201 1328.35 160.145L1325.12 148.512ZM1296.03 105.071C1299.07 107.734 1301.94 110.578 1304.64 113.588L1296.03 105.071Z" stroke="#DBE7F0" stroke-width="1.097" stroke-linecap="round" stroke-linejoin="round"/>
<path opacity="0.5" fill-rule="evenodd" clip-rule="evenodd" d="M1166.29 262.376C1170.11 265.747 1174.7 268.895 1180.33 271.539C1180.57 271.649 1180.76 271.818 1180.9 272.035C1181.52 272.985 1183.78 275.412 1184.49 276.174C1184.64 276.333 1184.82 276.447 1185.02 276.521L1192.49 279.241C1192.7 279.321 1192.89 279.452 1193.04 279.624L1197.88 285.081C1198.21 285.439 1198.69 285.605 1199.16 285.523L1204.27 284.623C1204.45 284.589 1204.64 284.594 1204.82 284.637L1208.43 285.464C1208.62 285.506 1208.81 285.51 1209 285.474L1213.19 284.679C1213.36 284.645 1213.55 284.647 1213.73 284.683L1221.76 286.361C1222.05 286.422 1222.35 286.387 1222.62 286.26L1226.86 284.299C1227.04 284.216 1227.24 284.17 1227.44 284.17L1234.15 284.177C1234.41 284.177 1234.66 284.104 1234.89 283.967L1239.11 281.33C1240 280.772 1239.58 279.395 1238.53 279.435L1235.26 279.56C1235.04 279.569 1234.81 279.524 1234.61 279.427L1226.62 275.617C1226.34 275.481 1226.01 275.448 1225.7 275.524L1221.17 276.636C1220.86 276.713 1220.52 276.679 1220.23 276.532L1207.3 270.121C1207.17 270.058 1207.03 270.016 1206.89 269.994L1196.53 268.435C1196.3 268.402 1196.09 268.314 1195.9 268.177L1187.5 261.895C1187.26 261.709 1186.95 261.612 1186.64 261.619L1176.79 261.852C1176.68 261.854 1176.58 261.845 1176.47 261.824L1167.49 259.976C1166.1 259.69 1165.23 261.438 1166.29 262.377" fill="#27363A"/>
<path opacity="0.5" fill-rule="evenodd" clip-rule="evenodd" d="M1166.29 262.376C1170.11 265.747 1174.7 268.895 1180.33 271.539C1180.57 271.649 1180.76 271.818 1180.9 272.035C1181.52 272.985 1183.78 275.412 1184.49 276.174C1184.64 276.333 1184.82 276.447 1185.02 276.521L1192.49 279.241C1192.7 279.321 1192.89 279.452 1193.04 279.624L1197.88 285.081C1198.21 285.439 1198.69 285.605 1199.16 285.523L1204.27 284.623C1204.45 284.589 1204.64 284.594 1204.82 284.637L1208.43 285.464C1208.62 285.506 1208.81 285.51 1209 285.474L1213.19 284.679C1213.36 284.645 1213.55 284.647 1213.73 284.683L1221.76 286.361C1222.05 286.422 1222.35 286.387 1222.62 286.26L1226.86 284.299C1227.04 284.216 1227.24 284.17 1227.44 284.17L1234.15 284.177C1234.41 284.177 1234.66 284.104 1234.89 283.967L1239.11 281.33C1240 280.772 1239.58 279.395 1238.53 279.435L1235.26 279.56C1235.04 279.569 1234.81 279.524 1234.61 279.427L1226.62 275.617C1226.34 275.481 1226.01 275.448 1225.7 275.524L1221.17 276.636C1220.86 276.713 1220.52 276.679 1220.23 276.532L1207.3 270.121C1207.17 270.058 1207.03 270.016 1206.89 269.994L1196.53 268.435C1196.3 268.402 1196.09 268.314 1195.9 268.177L1187.5 261.895C1187.26 261.709 1186.95 261.612 1186.64 261.619L1176.79 261.852C1176.68 261.854 1176.58 261.845 1176.47 261.824L1167.49 259.976C1166.1 259.69 1165.23 261.438 1166.29 262.377V262.376Z" stroke="#DBE7F0" stroke-width="1.097" stroke-linecap="round" stroke-linejoin="round"/>
<path opacity="0.5" fill-rule="evenodd" clip-rule="evenodd" d="M1306.91 113.822C1314.08 121.937 1323.57 135.945 1326.24 146.957C1326.3 147.182 1326.29 147.418 1326.23 147.641C1326.17 147.865 1326.06 148.069 1325.89 148.236C1322.76 151.531 1307.8 165.363 1306.21 166.832C1306.11 166.925 1306.01 166.988 1305.89 167.046L1297 171.395C1296.89 171.448 1296.78 171.488 1296.66 171.509L1292 172.443C1291.65 172.513 1291.34 172.716 1291.14 173.009L1285.62 180.895C1285.22 181.477 1284.44 181.658 1283.82 181.313L1263.18 169.834C1262.99 169.731 1262.83 169.588 1262.71 169.415C1262.59 169.242 1262.51 169.043 1262.48 168.835L1259.87 151.897C1259.83 151.618 1259.87 151.332 1259.99 151.078C1260.12 150.824 1260.31 150.614 1260.56 150.476L1273.97 142.987C1274.3 142.799 1274.54 142.484 1274.63 142.113L1280.32 119.261C1280.38 119.006 1280.52 118.774 1280.71 118.593C1280.9 118.412 1281.14 118.288 1281.39 118.238L1305.61 113.394C1305.84 113.345 1306.09 113.358 1306.32 113.434C1306.54 113.509 1306.75 113.644 1306.91 113.824" fill="#27363A"/>
<path opacity="0.5" fill-rule="evenodd" clip-rule="evenodd" d="M1306.91 113.822C1314.08 121.937 1323.57 135.945 1326.24 146.957C1326.3 147.182 1326.29 147.418 1326.23 147.641C1326.17 147.865 1326.06 148.069 1325.89 148.236C1322.76 151.531 1307.8 165.363 1306.21 166.832C1306.11 166.925 1306.01 166.988 1305.89 167.046L1297 171.395C1296.89 171.448 1296.78 171.488 1296.66 171.509L1292 172.443C1291.65 172.513 1291.34 172.716 1291.14 173.009L1285.62 180.895C1285.22 181.477 1284.44 181.658 1283.82 181.313L1263.18 169.834C1262.99 169.731 1262.83 169.588 1262.71 169.415C1262.59 169.242 1262.51 169.043 1262.48 168.835L1259.87 151.897C1259.83 151.618 1259.87 151.332 1259.99 151.078C1260.12 150.824 1260.31 150.614 1260.56 150.476L1273.97 142.987C1274.3 142.799 1274.54 142.484 1274.63 142.113L1280.32 119.261C1280.38 119.006 1280.52 118.774 1280.71 118.593C1280.9 118.412 1281.14 118.288 1281.39 118.238L1305.61 113.394C1305.84 113.345 1306.09 113.358 1306.32 113.434C1306.54 113.509 1306.75 113.644 1306.91 113.824V113.822Z" stroke="#DBE7F0" stroke-width="1.097" stroke-linecap="round" stroke-linejoin="round"/>
<path opacity="0.5" fill-rule="evenodd" clip-rule="evenodd" d="M1127.97 203.233C1126.4 195.954 1125.67 188.52 1125.8 181.075C1125.81 179.917 1127.19 179.309 1128.08 180.053L1134.75 185.662C1135.04 185.907 1135.42 186.019 1135.8 185.977L1146.69 184.743C1147 184.709 1147.31 184.781 1147.58 184.946L1160.98 193.342C1161.12 193.431 1161.28 193.494 1161.44 193.528L1175.11 196.262C1175.42 196.327 1175.75 196.278 1176.03 196.125L1187.83 189.755C1188.1 189.606 1188.42 189.555 1188.72 189.609C1189.03 189.663 1189.31 189.819 1189.51 190.052L1198.09 199.692C1198.3 199.921 1198.42 200.213 1198.44 200.521L1200.02 224.031C1200.05 224.455 1199.88 224.868 1199.57 225.152L1188.24 235.425C1188.05 235.601 1187.91 235.828 1187.84 236.079L1184.57 247.798C1184.5 248.056 1184.35 248.287 1184.15 248.464C1183.95 248.641 1183.7 248.756 1183.44 248.795L1169.16 250.872C1169.03 250.891 1168.9 250.891 1168.77 250.872L1162.71 249.986C1162.44 249.945 1162.16 249.986 1161.92 250.103C1161.67 250.22 1161.46 250.408 1161.32 250.644C1160.86 251.414 1160.15 252.613 1159.56 253.602C1159.46 253.778 1159.32 253.929 1159.15 254.044C1158.98 254.158 1158.78 254.233 1158.58 254.264C1158.38 254.295 1158.17 254.28 1157.97 254.221C1157.78 254.162 1157.59 254.061 1157.44 253.923C1151.14 248.236 1145.81 241.977 1141.42 235.31H1159.69C1165.61 235.31 1156.73 232.213 1150.4 232.617C1149.57 232.67 1148.71 232.724 1147.84 232.775C1147.63 230.71 1145.43 227.241 1140.56 227.186C1140.91 226.682 1141.24 226.156 1141.52 225.612C1151.07 209.711 1138.55 201.449 1127.97 203.236V203.233Z" fill="#27363A"/>
<path opacity="0.5" fill-rule="evenodd" clip-rule="evenodd" d="M1141.42 235.308C1145.81 241.974 1151.14 248.232 1157.44 253.921C1157.59 254.058 1157.78 254.159 1157.97 254.218C1158.17 254.277 1158.38 254.292 1158.58 254.261C1158.78 254.23 1158.97 254.155 1159.15 254.041C1159.32 253.926 1159.46 253.776 1159.56 253.599C1160.15 252.61 1160.86 251.412 1161.32 250.641C1161.46 250.406 1161.67 250.218 1161.91 250.1C1162.16 249.983 1162.44 249.943 1162.71 249.983L1168.76 250.869C1168.9 250.889 1169.03 250.889 1169.16 250.869L1183.44 248.792C1183.7 248.753 1183.95 248.638 1184.15 248.461C1184.35 248.284 1184.5 248.052 1184.57 247.794L1187.84 236.076C1187.91 235.825 1188.05 235.599 1188.24 235.423L1199.57 225.149C1199.88 224.865 1200.05 224.453 1200.02 224.029L1198.44 200.521C1198.42 200.213 1198.3 199.922 1198.09 199.692L1189.51 190.051C1189.31 189.819 1189.03 189.663 1188.72 189.609C1188.41 189.556 1188.1 189.607 1187.82 189.755L1176.03 196.124C1175.75 196.277 1175.42 196.327 1175.1 196.263L1161.44 193.529C1161.28 193.495 1161.12 193.432 1160.98 193.344L1147.58 184.947C1147.31 184.783 1147 184.711 1146.69 184.745L1135.8 185.979C1135.61 186 1135.42 185.983 1135.24 185.928C1135.06 185.874 1134.9 185.784 1134.75 185.663L1128.08 180.054C1127.19 179.31 1125.81 179.919 1125.8 181.077C1125.67 188.527 1126.4 195.967 1127.97 203.251L1141.42 235.308ZM1210.73 80.1829C1176.71 86.0576 1139.38 112.16 1129.16 158.523C1128.94 159.508 1129.83 160.392 1130.82 160.179C1131.84 159.957 1133.01 159.681 1133.77 159.496C1134.01 159.437 1134.26 159.445 1134.5 159.519C1134.74 159.592 1134.95 159.73 1135.12 159.916L1142.73 168.377C1143.06 168.744 1143.56 168.907 1144.04 168.804L1163.85 164.581C1164.18 164.507 1164.48 164.313 1164.68 164.034L1177.07 146.767C1177.25 146.51 1177.34 146.199 1177.32 145.885C1177.31 145.57 1177.18 145.27 1176.97 145.035L1170.61 137.931C1170.47 137.774 1170.37 137.586 1170.31 137.382C1170.25 137.178 1170.24 136.964 1170.28 136.756L1172.34 125.577C1172.42 125.132 1172.71 124.754 1173.12 124.567L1185.14 119.102C1185.34 119.009 1185.57 118.967 1185.79 118.98C1186.01 118.992 1186.23 119.059 1186.42 119.173C1186.61 119.288 1186.77 119.447 1186.89 119.638C1187.01 119.829 1187.08 120.045 1187.09 120.268L1187.72 129.67C1187.74 130.017 1187.9 130.341 1188.15 130.583L1204.57 146.155C1204.91 146.482 1205.41 146.609 1205.87 146.487L1219.84 142.797C1219.98 142.761 1220.12 142.746 1220.26 142.753C1222.07 142.838 1234.97 143.424 1235.16 142.97C1235.34 142.527 1236.6 129.487 1236.82 127.177C1236.84 126.944 1236.92 126.722 1237.06 126.532L1245.09 114.973C1245.26 114.723 1245.34 114.424 1245.33 114.121C1245.32 113.818 1245.21 113.528 1245.01 113.295L1231.4 96.9844C1231.25 96.8055 1231.05 96.6677 1230.84 96.5837L1214.07 90.0413C1213.84 89.9526 1213.64 89.8035 1213.49 89.6097C1213.34 89.4159 1213.24 89.1846 1213.21 88.94C1212.99 87.3204 1212.52 83.6342 1212.34 81.4424C1212.32 81.2506 1212.27 81.0639 1212.18 80.8944C1212.09 80.7249 1211.96 80.5761 1211.81 80.4576C1211.66 80.3392 1211.48 80.2536 1211.3 80.2063C1211.11 80.159 1210.92 80.151 1210.73 80.1829H1210.73Z" stroke="#DBE7F0" stroke-width="1.097" stroke-linecap="round" stroke-linejoin="round"/>
<path opacity="0.5" fill-rule="evenodd" clip-rule="evenodd" d="M1327.68 160.84L1323.58 170.21C1323.41 170.585 1323.1 170.865 1322.71 170.983L1312.42 174.046C1312.18 174.117 1311.97 174.251 1311.8 174.432L1302.57 184.434C1302.29 184.733 1302.16 185.14 1302.21 185.544L1303.96 199.538C1304.01 199.93 1303.89 200.324 1303.63 200.62L1295.84 209.557C1295.71 209.711 1295.54 209.833 1295.36 209.915C1295.17 209.996 1294.97 210.036 1294.76 210.03L1280.96 209.667C1280.6 209.657 1280.25 209.788 1279.99 210.033C1279.72 210.277 1279.56 210.614 1279.54 210.974L1278.63 227.234C1278.62 227.401 1278.58 227.566 1278.51 227.718L1272.09 242.177C1272.02 242.347 1271.98 242.531 1271.97 242.717C1271.97 242.902 1272.01 243.087 1272.08 243.259L1277.13 255.785C1277.29 256.176 1277.26 256.618 1277.05 256.985L1270.04 269.396C1269.98 269.517 1269.9 269.619 1269.8 269.712C1269.08 270.393 1265.81 273.528 1263.48 275.943C1262.51 276.943 1263.46 278.572 1264.81 278.245C1286.89 272.948 1341.81 234.914 1330.32 161.2C1330.11 159.827 1328.24 159.569 1327.68 160.84" fill="#27363A"/>
<path opacity="0.5" fill-rule="evenodd" clip-rule="evenodd" d="M1327.68 160.839L1323.58 170.21C1323.41 170.585 1323.1 170.865 1322.71 170.983L1312.42 174.046C1312.18 174.117 1311.97 174.251 1311.8 174.432L1302.57 184.433C1302.29 184.733 1302.16 185.14 1302.21 185.544L1303.96 199.538C1304.01 199.93 1303.89 200.324 1303.63 200.62L1295.84 209.557C1295.71 209.71 1295.54 209.833 1295.36 209.915C1295.17 209.996 1294.97 210.036 1294.76 210.03L1280.96 209.667C1280.6 209.657 1280.25 209.788 1279.99 210.033C1279.72 210.277 1279.56 210.614 1279.54 210.974L1278.63 227.234C1278.62 227.401 1278.58 227.566 1278.51 227.718L1272.09 242.177C1272.02 242.347 1271.98 242.531 1271.97 242.717C1271.97 242.902 1272.01 243.087 1272.08 243.259L1277.13 255.784C1277.29 256.176 1277.26 256.618 1277.05 256.985L1270.04 269.396C1269.98 269.517 1269.9 269.619 1269.8 269.712C1269.08 270.393 1265.81 273.528 1263.48 275.943C1262.51 276.943 1263.46 278.572 1264.81 278.245C1286.89 272.948 1341.81 234.914 1330.32 161.2C1330.11 159.827 1328.24 159.569 1327.68 160.84L1327.68 160.839ZM1233.05 78.4983L1245.08 77.8195C1245.41 77.8001 1245.74 77.9024 1246 78.1069L1247.86 79.5456C1248.19 79.8017 1248.62 79.8947 1249.03 79.7958L1256.39 78.0351C1256.75 77.9489 1257.13 78.0123 1257.45 78.2101L1260.52 80.1567C1260.81 80.3427 1261.16 80.4103 1261.5 80.3511L1266.18 79.5244C1266.44 79.4771 1266.71 79.5075 1266.95 79.6056L1268.59 80.2843C1268.9 80.4111 1269.15 80.6444 1269.3 80.9411L1270.85 84.023C1271.05 84.4118 1271.41 84.6848 1271.84 84.7609L1275.01 85.3289C1275.35 85.3881 1275.64 85.5656 1275.85 85.8302L1278.23 88.8309C1278.32 88.9424 1278.43 89.0397 1278.55 89.1183L1283.95 92.7504C1284.13 92.8704 1284.27 93.0209 1284.38 93.2068C1284.75 93.8577 1285.67 95.4578 1285.9 95.6497C1286.14 95.861 1294.25 102.505 1296.51 104.35C1296.74 104.544 1296.65 104.927 1296.36 104.997C1295.61 105.174 1294.48 105.431 1293.92 105.51C1293.72 105.537 1293.52 105.506 1293.34 105.419L1286.02 101.925C1285.93 101.883 1285.83 101.847 1285.73 101.824L1277.68 99.9614C1277.52 99.9226 1277.35 99.914 1277.19 99.936L1269.11 101.011C1268.78 101.056 1268.43 100.974 1268.15 100.781L1255.84 92.3371C1255.71 92.2461 1255.56 92.1792 1255.4 92.1393L1241.09 88.4235C1240.8 88.3472 1240.54 88.1761 1240.35 87.9366L1236.62 83.1524C1236.48 82.9764 1236.3 82.8364 1236.1 82.7441L1232.56 81.1381C1231.24 80.5379 1231.61 78.5769 1233.05 78.4958V78.4983Z" stroke="#DBE7F0" stroke-width="1.097" stroke-linecap="round" stroke-linejoin="round"/>
<path opacity="0.5" fill-rule="evenodd" clip-rule="evenodd" d="M1111.08 110.107C1110.5 109.407 1109.69 109.051 1108.64 108.996C1107.56 108.996 1106.76 109.463 1106.2 110.108C1106.01 110.316 1105.86 110.495 1105.73 110.647C1105.68 110.709 1105.62 110.759 1105.54 110.793C1105.47 110.827 1105.39 110.845 1105.31 110.845C1105.23 110.845 1105.15 110.827 1105.08 110.793C1105 110.759 1104.94 110.709 1104.89 110.647C1104.76 110.495 1104.61 110.316 1104.42 110.108C1103.84 109.463 1103.12 108.997 1101.98 108.997C1100.93 109.053 1100.1 109.42 1099.54 110.109C1098.96 110.787 1098.67 111.532 1098.65 112.332C1098.65 112.908 1098.75 114.019 1099.39 115.299C1100.01 116.529 1101.85 118.422 1104.95 120.935C1105.16 121.1 1105.46 121.1 1105.66 120.935C1108.76 118.422 1110.62 116.54 1111.23 115.299C1111.87 114.009 1111.97 112.887 1111.97 112.332C1111.94 111.532 1111.65 110.787 1111.08 110.087V110.108L1111.08 110.107Z" fill="#27363A"/>
<path opacity="0.5" fill-rule="evenodd" clip-rule="evenodd" d="M1324.65 141.925H1383.38C1392.8 141.925 1388.76 138.424 1376.92 139.502C1376.33 139.555 1375.74 139.595 1375.16 139.632C1373.84 138.193 1370.55 136.435 1367.34 137.423C1366.8 133.563 1360.4 128.921 1354.37 132.953C1353.93 126.954 1347.9 121.2 1341.54 126.319C1343.44 116.601 1340.88 105.9 1326.06 107.176C1316.93 107.962 1312.82 112.687 1311.53 118.376L1324.65 141.925ZM1150.4 232.614C1149.57 232.667 1148.71 232.721 1147.84 232.773C1147.63 230.707 1145.43 227.239 1140.56 227.183C1140.91 226.679 1141.24 226.153 1141.52 225.609C1155.52 202.309 1122.11 195.41 1116.88 212.501C1115.78 216.118 1115.32 219.656 1115.33 222.781C1113.66 221.716 1111.39 221.031 1108.29 221.031C1099.85 221.031 1097.08 228.438 1097.93 231.981C1096.41 231.031 1094.71 230.109 1090.93 230.459C1083.67 231.133 1076.4 235.309 1087.43 235.309H1159.69C1165.61 235.309 1156.73 232.21 1150.4 232.614H1150.4Z" stroke="#DBE7F0" stroke-width="1.097" stroke-linecap="round" stroke-linejoin="round"/>
</g>
</svg>
